# Blender 5.0.1
# www.blender.org
mtllib 3dmod.mtl
o Ходовая_балка
v 1.639341 -0.013782 0.159063
v 1.552949 -0.013782 0.072671
v 1.552949 1.797317 0.072671
v 1.639341 1.797317 0.159063
v 1.552949 -0.013782 -0.072671
v 1.639341 -0.013782 -0.159063
v 1.639341 1.797317 -0.159063
v 1.552949 1.797317 -0.072671
v 1.871075 -0.013782 0.072671
v 1.784683 -0.013782 0.159063
v 1.784683 1.797317 0.159063
v 1.871075 1.797317 0.072671
v 1.784683 -0.013782 -0.159063
v 1.871075 -0.013782 -0.072671
v 1.871075 1.797317 -0.072671
v 1.784683 1.797317 -0.159063
v -1.623602 -0.013782 0.159063
v -1.709994 -0.013782 0.072671
v -1.709994 1.797317 0.072671
v -1.623602 1.797317 0.159063
v -1.709994 -0.013782 -0.072671
v -1.623602 -0.013782 -0.159063
v -1.623602 1.797317 -0.159063
v -1.709994 1.797317 -0.072671
v -1.391868 -0.013782 0.072671
v -1.478260 -0.013782 0.159063
v -1.478260 1.797317 0.159063
v -1.391868 1.797317 0.072671
v -1.478260 -0.013782 -0.159063
v -1.391868 -0.013782 -0.072671
v -1.391868 1.797317 -0.072671
v -1.478260 1.797317 -0.159063
v -1.721284 1.699662 0.261883
v -1.721284 2.223427 0.261883
v -1.721284 1.699662 -0.261882
v -1.721284 2.223427 -0.261882
v 1.885748 1.699662 0.261883
v 1.885748 2.223427 0.261883
v 1.885748 1.699662 -0.261882
v 1.885748 2.223427 -0.261882
vn -0.7071 -0.0000 0.7071
vn -0.7071 -0.0000 -0.7071
vn 0.7071 -0.0000 -0.7071
vn 0.7071 -0.0000 0.7071
vn -0.0000 -1.0000 -0.0000
vn -1.0000 -0.0000 -0.0000
vn -0.0000 -0.0000 1.0000
vn -0.0000 1.0000 -0.0000
vn -0.0000 -0.0000 -1.0000
vn 1.0000 -0.0000 -0.0000
vt 0.375000 0.000000
vt 0.625000 0.000000
vt 0.625000 0.067891
vt 0.375000 0.067891
vt 0.625000 0.317891
vt 0.375000 0.317891
vt 0.375000 0.182109
vt 0.625000 0.182109
vt 0.625000 0.567891
vt 0.375000 0.567891
vt 0.352370 0.454739
vt 0.647630 0.454739
vt 0.647630 0.795261
vt 0.352370 0.795261
vt 0.375000 0.682109
vt 0.625000 0.682109
vt 0.125000 0.567891
vt 0.192891 0.500000
vt 0.192891 0.750000
vt 0.125000 0.682109
vt 0.625000 0.932109
vt 0.375000 0.932109
vt 0.807109 0.500000
vt 0.875000 0.567891
vt 0.875000 0.682109
vt 0.807109 0.750000
vt 0.625000 0.250000
vt 0.375000 0.250000
vt 0.625000 0.500000
vt 0.375000 0.500000
vt 0.625000 0.750000
vt 0.375000 0.750000
vt 0.625000 1.000000
vt 0.375000 1.000000
vt 0.125000 0.500000
vt 0.125000 0.750000
vt 0.875000 0.500000
vt 0.875000 0.750000
s 1
usemtl Material.001
f 1/1/1 4/2/1 3/3/1 2/4/1
f 7/5/2 6/6/2 5/7/2 8/8/2
f 15/9/3 14/10/3 13/11/3 16/12/3
f 11/13/4 10/14/4 9/15/4 12/16/4
f 5/17/5 6/18/5 13/11/5 14/10/5 9/15/5 10/14/5 1/19/5 2/20/5
f 2/4/6 3/3/6 8/8/6 5/7/6
f 10/14/7 11/13/7 4/21/7 1/22/7
f 15/9/8 16/12/8 7/23/8 8/24/8 3/25/8 4/26/8 11/13/8 12/16/8
f 6/6/9 7/5/9 16/12/9 13/11/9
f 14/10/10 15/9/10 12/16/10 9/15/10
f 17/1/1 20/2/1 19/3/1 18/4/1
f 23/5/2 22/6/2 21/7/2 24/8/2
f 31/9/3 30/10/3 29/11/3 32/12/3
f 27/13/4 26/14/4 25/15/4 28/16/4
f 21/17/5 22/18/5 29/11/5 30/10/5 25/15/5 26/14/5 17/19/5 18/20/5
f 18/4/6 19/3/6 24/8/6 21/7/6
f 26/14/7 27/13/7 20/21/7 17/22/7
f 31/9/8 32/12/8 23/23/8 24/24/8 19/25/8 20/26/8 27/13/8 28/16/8
f 22/6/9 23/5/9 32/12/9 29/11/9
f 30/10/10 31/9/10 28/16/10 25/15/10
f 33/1/6 34/2/6 36/27/6 35/28/6
f 35/28/9 36/27/9 40/29/9 39/30/9
f 39/30/10 40/29/10 38/31/10 37/32/10
f 37/32/7 38/31/7 34/33/7 33/34/7
f 35/35/5 39/30/5 37/32/5 33/36/5
f 40/29/8 36/37/8 34/38/8 38/31/8
o Cube.002
v -0.544647 1.704066 1.169869
v -0.544647 1.704065 0.977518
v -0.387446 1.704066 1.169869
v -0.387446 1.704065 0.977518
v -0.566682 0.769373 1.216024
v -0.566682 0.769373 0.931363
v -0.365412 0.769373 1.216024
v -0.365412 0.769373 0.931363
v -0.566682 0.278814 1.216024
v -0.566682 0.278814 0.931363
v -0.365412 0.278814 1.216024
v -0.365412 0.278814 0.931363
v -0.544647 1.513816 1.103948
v -0.478727 1.513816 1.169869
v -0.544647 1.579737 1.169869
v -0.525340 1.513816 1.150561
v -0.478727 1.513816 0.977518
v -0.544647 1.513816 1.043438
v -0.544647 1.579737 0.977518
v -0.525340 1.513816 0.996825
v -0.453367 1.513816 1.169869
v -0.387446 1.513816 1.103948
v -0.387446 1.579737 1.169869
v -0.406754 1.513816 1.150561
v -0.387446 1.513816 1.043438
v -0.453367 1.513816 0.977518
v -0.387446 1.579737 0.977518
v -0.406754 1.513816 0.996825
v -0.478727 0.769373 1.169869
v -0.544647 0.769373 1.103948
v -0.566677 0.769373 1.216013
v -0.525340 0.769373 1.150561
v -0.544647 0.769373 1.043438
v -0.478727 0.769373 0.977518
v -0.566677 0.769373 0.931373
v -0.525340 0.769373 0.996825
v -0.387446 0.769373 1.103948
v -0.453367 0.769373 1.169869
v -0.365417 0.769373 1.216013
v -0.406754 0.769373 1.150561
v -0.453367 0.769373 0.977518
v -0.387446 0.769373 1.043438
v -0.365417 0.769373 0.931373
v -0.406754 0.769373 0.996825
v -0.851875 1.683442 0.875255
v -0.851875 1.778536 0.629561
v -0.588421 1.683442 0.875255
v -0.588421 1.778536 0.629561
v -0.851875 1.484706 0.658837
v -0.851875 1.559073 0.827119
v -0.851875 1.477876 0.683409
v -0.851875 1.475971 0.708840
v -0.851875 1.479065 0.734155
v -0.851875 1.487037 0.758380
v -0.851875 1.499582 0.780584
v -0.851875 1.516218 0.799914
v -0.851875 1.536306 0.815627
v -0.851875 1.654166 0.581425
v -0.851875 1.485885 0.655792
v -0.851875 1.629595 0.574595
v -0.851875 1.604163 0.572690
v -0.851875 1.578848 0.575784
v -0.851875 1.554623 0.583756
v -0.851875 1.532419 0.596302
v -0.851875 1.513090 0.612938
v -0.851875 1.497377 0.633025
v -0.588421 1.559073 0.827119
v -0.588421 1.484706 0.658837
v -0.588421 1.536306 0.815627
v -0.588421 1.516218 0.799914
v -0.588421 1.499582 0.780584
v -0.588421 1.487037 0.758380
v -0.588421 1.479065 0.734155
v -0.588421 1.475971 0.708840
v -0.588421 1.477876 0.683409
v -0.588421 1.485885 0.655792
v -0.588421 1.654166 0.581425
v -0.588421 1.497377 0.633025
v -0.588421 1.513090 0.612938
v -0.588421 1.532419 0.596302
v -0.588421 1.554623 0.583756
v -0.588421 1.578848 0.575784
v -0.588421 1.604163 0.572690
v -0.588421 1.629595 0.574595
v -0.851875 2.452651 1.188696
v -0.851875 2.619341 1.115032
v -0.851875 2.476990 1.195461
v -0.851875 2.502181 1.197348
v -0.851875 2.527256 1.194284
v -0.851875 2.551252 1.186387
v -0.851875 2.573246 1.173960
v -0.851875 2.592393 1.157481
v -0.851875 2.607957 1.137584
v -0.851875 2.621407 1.109692
v -0.851875 2.547744 0.943002
v -0.851875 2.628172 1.085353
v -0.851875 2.630059 1.060162
v -0.851875 2.626995 1.035086
v -0.851875 2.619098 1.011091
v -0.851875 2.606671 0.989097
v -0.851875 2.590193 0.969950
v -0.851875 2.570295 0.954386
v -0.588421 2.619341 1.115032
v -0.588421 2.452650 1.188696
v -0.588421 2.607957 1.137584
v -0.588421 2.592393 1.157481
v -0.588421 2.573246 1.173960
v -0.588421 2.551252 1.186387
v -0.588421 2.527256 1.194284
v -0.588421 2.502181 1.197348
v -0.588421 2.476990 1.195461
v -0.588421 2.547744 0.943002
v -0.588421 2.621407 1.109692
v -0.588421 2.570295 0.954385
v -0.588421 2.590193 0.969950
v -0.588421 2.606671 0.989097
v -0.588421 2.619098 1.011091
v -0.588421 2.626995 1.035086
v -0.588421 2.630059 1.060162
v -0.588421 2.628172 1.085353
v -0.701536 2.353292 1.240716
v -0.544647 1.746858 1.169869
v -0.544647 1.746857 0.977518
v -0.387446 1.746858 1.169869
v -0.701536 2.658235 1.240716
v -0.387446 1.746857 0.977518
v -0.701536 2.353292 0.906671
v -0.701536 2.658235 0.906671
v -0.230558 2.353292 1.240716
v -0.566682 1.696285 1.216024
v -0.230558 2.658235 1.240716
v -0.566682 1.696285 0.931363
v -0.230558 2.353292 0.906671
v -0.544647 1.701827 1.103948
v -0.478727 1.701827 1.169869
v -0.365412 1.696285 1.216024
v -0.230558 2.658235 0.906671
v -0.365412 1.696285 0.931363
v -0.578470 2.200463 1.240716
v -0.478727 1.701827 0.977518
v -0.578470 2.200463 0.906671
v -0.544647 1.701827 1.043439
v -0.353624 2.200463 1.240716
v -0.353624 2.200463 0.906671
v -0.453367 1.701827 1.169869
v -0.578470 1.694810 1.240716
v -0.387446 1.701827 1.103948
v -0.578470 1.694810 0.906671
v -0.387446 1.701827 1.043439
v -0.353624 1.694810 1.240716
v -0.453367 1.701827 0.977518
v -0.353624 1.694810 0.906671
v -0.478727 1.696285 1.169869
v -0.544647 1.696285 1.103948
v -0.566677 1.696285 1.216013
v -0.544647 1.696285 1.043439
v -0.478727 1.696285 0.977518
v -0.566677 1.696285 0.931374
v -0.387446 1.696285 1.103948
v -0.453367 1.696285 1.169869
v -0.365417 1.696285 1.216013
v -0.453367 1.696285 0.977518
v -0.387446 1.696285 1.043439
v -0.365417 1.696285 0.931374
v -0.365412 1.694810 1.216024
v -0.365412 1.694810 1.216024
v -0.365412 1.694810 0.931363
v -0.365412 1.694810 0.931363
v -0.566682 1.694810 0.931363
v -0.566682 1.694810 1.216024
v -0.387446 1.701827 1.103498
v -0.387446 1.702072 1.103478
v -0.478538 1.701827 1.169869
v -0.478533 1.701967 1.169869
v -0.453560 1.701967 0.977518
v -0.453556 1.701827 0.977518
v -0.544647 1.702072 1.043909
v -0.544647 1.701827 1.043889
v -0.537534 1.696285 1.169869
v -0.544647 1.696285 1.169869
v -0.537534 1.696285 0.977518
v -0.544647 1.696285 0.977518
v -0.387446 1.696285 1.169869
v -0.394560 1.696285 1.169869
v -0.394560 1.696285 0.977518
v -0.387446 1.696285 0.977518
v -0.544647 1.746857 1.148979
v -0.523757 1.746858 1.169869
v -0.523757 1.746857 0.977518
v -0.544647 1.746857 0.998408
v -0.408336 1.746858 1.169869
v -0.387446 1.746857 1.148979
v -0.387446 1.746857 0.998408
v -0.408336 1.746857 0.977518
v -0.544647 1.746857 1.103948
v -0.544647 1.701427 1.047804
v -0.544647 1.704948 1.042357
v -0.544647 1.703851 1.044054
v -0.544647 1.702060 1.046825
v -0.544647 1.701827 1.047186
v -0.544647 1.746857 1.043439
v -0.544647 1.704249 1.043439
v -0.453367 1.746858 1.169869
v -0.478727 1.746858 1.169869
v -0.478727 1.746857 0.977518
v -0.453367 1.746857 0.977518
v -0.387446 1.746857 1.103948
v -0.387446 1.701427 1.099582
v -0.387446 1.703851 1.103333
v -0.387446 1.704249 1.103948
v -0.387446 1.701827 1.100201
v -0.387446 1.702060 1.100562
v -0.387446 1.746857 1.043439
v -0.588331 1.739725 0.432263
v -0.588332 1.896085 0.644301
v -0.324877 1.739725 0.432263
v -0.324877 1.896085 0.644301
v -0.588332 2.028973 0.380608
v -0.588332 1.847058 0.353115
v -0.588332 2.011899 0.361665
v -0.588332 1.991456 0.346417
v -0.588332 1.968431 0.335450
v -0.588332 1.943710 0.329186
v -0.588332 1.918241 0.327864
v -0.588332 1.893004 0.331537
v -0.588332 1.868968 0.340063
v -0.588332 2.003417 0.565152
v -0.588332 2.030911 0.383237
v -0.588332 2.022361 0.548077
v -0.588332 2.037609 0.527635
v -0.588332 2.048576 0.504610
v -0.588332 2.054840 0.479888
v -0.588332 2.056161 0.454420
v -0.588332 2.052488 0.429183
v -0.588332 2.043962 0.405147
v -0.324877 1.847058 0.353115
v -0.324877 2.028973 0.380608
v -0.324877 1.868968 0.340063
v -0.324877 1.893004 0.331537
v -0.324877 1.918241 0.327864
v -0.324877 1.943710 0.329186
v -0.324877 1.968431 0.335450
v -0.324877 1.991456 0.346417
v -0.324877 2.011899 0.361665
v -0.324877 2.030911 0.383237
v -0.324877 2.003417 0.565152
v -0.324877 2.043962 0.405147
v -0.324877 2.052488 0.429183
v -0.324877 2.056161 0.454420
v -0.324877 2.054840 0.479888
v -0.324877 2.048576 0.504610
v -0.324877 2.037609 0.527635
v -0.324877 2.022361 0.548077
v -0.588331 1.516025 0.597223
v -0.588331 1.488791 0.777418
v -0.588331 1.497261 0.614137
v -0.588331 1.482157 0.634386
v -0.588331 1.471294 0.657192
v -0.588331 1.465088 0.681680
v -0.588331 1.463780 0.706908
v -0.588331 1.467418 0.731907
v -0.588331 1.475863 0.755715
v -0.588331 1.492189 0.782027
v -0.588332 1.672384 0.809261
v -0.588331 1.509103 0.800791
v -0.588331 1.529352 0.815895
v -0.588332 1.552159 0.826758
v -0.588332 1.576647 0.832963
v -0.588332 1.601874 0.834272
v -0.588332 1.626873 0.830634
v -0.588332 1.650681 0.822188
v -0.324877 1.488791 0.777418
v -0.324877 1.516025 0.597223
v -0.324877 1.475863 0.755715
v -0.324877 1.467418 0.731907
v -0.324877 1.463780 0.706908
v -0.324877 1.465088 0.681680
v -0.324877 1.471294 0.657192
v -0.324877 1.482157 0.634386
v -0.324877 1.497261 0.614137
v -0.324877 1.672384 0.809261
v -0.324877 1.492189 0.782027
v -0.324877 1.650681 0.822188
v -0.324877 1.626873 0.830634
v -0.324877 1.601874 0.834272
v -0.324877 1.576647 0.832963
v -0.324877 1.552159 0.826758
v -0.324877 1.529352 0.815895
v -0.324877 1.509103 0.800791
v -0.810139 1.618464 0.579760
v -0.810139 2.186455 0.579760
v -0.810139 1.618464 0.308681
v -0.810139 2.186455 0.308681
v -0.588418 1.618464 0.579760
v -0.588418 2.186455 0.579760
v -0.588418 1.618464 0.308681
v -0.588418 2.186455 0.308681
v -1.050187 1.484819 0.318698
v -1.050187 2.401761 0.318698
v -1.050187 1.484819 -0.305657
v -1.050187 2.401761 -0.305657
v 0.131686 1.484819 0.318698
v 0.131686 2.401762 0.318698
v 0.131686 1.484818 -0.305657
v 0.131686 2.401761 -0.305657
vn -0.0000 -0.0000 1.0000
vn -0.0000 -1.0000 -0.0000
vn -0.0000 -0.0000 -1.0000
vn 1.0000 -0.0000 -0.0000
vn -1.0000 -0.0000 -0.0000
vn -0.8629 -0.3574 0.3574
vn -0.3574 -0.3574 0.8629
vn -0.3574 -0.3574 -0.8629
vn -0.8629 -0.3574 -0.3574
vn 0.3574 -0.3574 0.8629
vn 0.8629 -0.3574 0.3574
vn 0.8629 -0.3574 -0.3574
vn 0.3574 -0.3574 -0.8629
vn -0.0000 1.0000 -0.0000
vn 0.3827 -0.0000 0.9239
vn 0.9239 -0.0000 0.3827
vn 0.3827 -0.0000 -0.9239
vn 0.9239 -0.0000 -0.3827
vn -0.3827 -0.0000 -0.9239
vn -0.9239 -0.0000 -0.3827
vn -0.3827 -0.0000 0.9239
vn -0.9239 -0.0000 0.3827
vn -0.0000 -0.4506 0.8927
vn -0.0000 -0.6161 0.7877
vn -0.0000 -0.7579 0.6523
vn -0.0000 -0.8706 0.4919
vn -0.0000 -0.9499 0.3126
vn -0.0000 -0.9926 0.1213
vn -0.0000 -0.9972 -0.0747
vn -0.0000 -0.9635 -0.2678
vn -0.0000 0.2678 -0.9635
vn -0.0000 0.0747 -0.9972
vn -0.0000 -0.1213 -0.9926
vn -0.0000 -0.3126 -0.9499
vn -0.0000 -0.4919 -0.8706
vn -0.0000 -0.6523 -0.7579
vn -0.0000 -0.7877 -0.6161
vn -0.0000 -0.8927 -0.4506
vn -0.0000 -0.3609 0.9326
vn -0.0000 -0.9326 -0.3610
vn -0.0000 0.3609 -0.9326
vn -0.0000 -0.2678 0.9635
vn -0.0000 -0.0747 0.9972
vn -0.0000 0.1213 0.9926
vn -0.0000 0.3126 0.9499
vn -0.0000 0.4919 0.8706
vn -0.0000 0.6523 0.7579
vn -0.0000 0.7877 0.6161
vn -0.0000 0.8927 0.4506
vn -0.0000 0.4506 -0.8927
vn -0.0000 0.6161 -0.7877
vn -0.0000 0.7579 -0.6523
vn -0.0000 0.8706 -0.4919
vn -0.0000 0.9499 -0.3126
vn -0.0000 0.9926 -0.1213
vn -0.0000 0.9972 0.0747
vn -0.0000 0.9635 0.2678
vn -0.0000 0.9326 0.3609
vn -0.0000 -0.3774 0.9261
vn -0.0000 0.3774 -0.9261
vn -0.7789 -0.6272 -0.0000
vn 0.7789 -0.6272 -0.0000
vn -0.0000 0.0001 -1.0000
vn -0.0000 -0.0002 -1.0000
vn -0.0000 0.0008 1.0000
vn -0.0000 -0.5118 -0.8591
vn -0.0000 -0.3343 -0.9425
vn -0.0000 -0.1440 -0.9896
vn -0.0000 0.0518 -0.9987
vn -0.0000 0.2456 -0.9694
vn -0.0000 0.4300 -0.9028
vn -0.0000 0.5979 -0.8016
vn -0.0000 0.7428 -0.6695
vn -0.0000 0.6695 0.7428
vn -0.0000 0.8016 0.5979
vn -0.0000 0.9028 0.4300
vn -0.0000 0.9694 0.2456
vn -0.0000 0.9987 0.0518
vn -0.0000 0.9896 -0.1440
vn -0.0000 0.9425 -0.3343
vn -0.0000 0.8591 -0.5118
vn -0.0000 -0.5935 -0.8048
vn -0.0000 0.8048 -0.5935
vn -0.0000 0.5935 0.8048
vn -0.0000 -0.6695 -0.7428
vn -0.0000 -0.8016 -0.5979
vn -0.0000 -0.9028 -0.4300
vn -0.0000 -0.9694 -0.2456
vn -0.0000 -0.9987 -0.0518
vn -0.0000 -0.9896 0.1440
vn -0.0000 -0.9425 0.3343
vn -0.0000 -0.8591 0.5118
vn -0.0000 0.5118 0.8591
vn -0.0000 0.3343 0.9425
vn -0.0000 0.1440 0.9896
vn -0.0000 -0.0518 0.9987
vn -0.0000 -0.2456 0.9694
vn -0.0000 -0.4300 0.9028
vn -0.0000 -0.5979 0.8016
vn -0.0000 -0.7428 0.6695
vn -0.0000 -0.8048 0.5935
vt 0.375000 0.750000
vt 0.375000 1.000000
vt 0.125000 0.500000
vt 0.375000 0.500000
vt 0.125000 0.750000
vt 0.375000 0.250000
vt 0.375000 0.000000
vt 0.375000 0.050048
vt 0.375000 0.014659
vt 0.375000 0.354835
vt 0.375000 0.280705
vt 0.375000 0.854835
vt 0.375000 0.780705
vt 0.375000 0.550048
vt 0.375000 0.514659
vt 0.375000 0.014659
vt 0.375000 0.050048
vt 0.375000 0.199952
vt 0.375000 0.235341
vt 0.375000 0.699952
vt 0.375000 0.735341
vt 0.375000 0.395165
vt 0.375000 0.469295
vt 0.375000 0.854835
vt 0.375000 0.354835
vt 0.375000 0.199952
vt 0.375000 0.895165
vt 0.375000 0.050048
vt 0.375000 0.623451
vt 0.125000 0.623451
vt 0.125000 0.599367
vt 0.375791 0.599367
vt 0.125000 0.576208
vt 0.378132 0.576208
vt 0.125000 0.554865
vt 0.381935 0.554865
vt 0.387053 0.512053
vt 0.393079 0.231921
vt 0.429865 0.243065
vt 0.429865 0.506935
vt 0.451208 0.246868
vt 0.451208 0.503132
vt 0.474367 0.249209
vt 0.474367 0.500791
vt 0.498451 0.250000
vt 0.498451 0.500000
vt 0.875000 0.623451
vt 0.625000 0.623451
vt 0.624209 0.599367
vt 0.875000 0.599367
vt 0.621868 0.576208
vt 0.875000 0.576208
vt 0.618065 0.554865
vt 0.875000 0.554865
vt 0.612947 0.512053
vt 0.875000 0.500000
vt 0.606921 0.231921
vt 0.570135 0.506935
vt 0.570135 0.243065
vt 0.548792 0.503132
vt 0.548792 0.246868
vt 0.525633 0.500791
vt 0.525633 0.249209
vt 0.501549 0.500000
vt 0.501549 0.250000
vt 0.625000 0.000000
vt 0.625000 0.126549
vt 0.622628 0.150633
vt 0.615603 0.173792
vt 0.604195 0.195135
vt 0.395805 0.195135
vt 0.384397 0.173792
vt 0.377372 0.150633
vt 0.375000 0.126549
vt 0.875000 0.750000
vt 0.625000 0.750000
vt 0.375783 0.750000
vt 0.378103 0.750000
vt 0.125000 0.750000
vt 0.381869 0.750000
vt 0.386939 0.750000
vt 0.429346 0.750000
vt 0.429346 1.000000
vt 0.450487 0.750000
vt 0.450487 1.000000
vt 0.473427 0.750000
vt 0.473427 1.000000
vt 0.497283 0.750000
vt 0.497283 1.000000
vt 0.624217 0.750000
vt 0.621897 0.750000
vt 0.618131 0.750000
vt 0.613061 0.750000
vt 0.625000 1.000000
vt 0.570654 1.000000
vt 0.570654 0.750000
vt 0.549513 1.000000
vt 0.549513 0.750000
vt 0.526573 1.000000
vt 0.526573 0.750000
vt 0.502717 1.000000
vt 0.502717 0.750000
vt 0.377350 0.000000
vt 0.384308 0.000000
vt 0.395608 0.000000
vt 0.410816 0.000000
vt 0.429346 0.000000
vt 0.450487 0.000000
vt 0.473427 0.000000
vt 0.497283 0.000000
vt 0.502717 0.000000
vt 0.526573 0.000000
vt 0.549513 0.000000
vt 0.570654 0.000000
vt 0.589184 0.000000
vt 0.604392 0.000000
vt 0.615692 0.000000
vt 0.622650 0.000000
vt 0.625000 0.250000
vt 0.625000 0.500000
vt 0.375000 1.000000
vt 0.375000 0.010335
vt 0.375000 0.013976
vt 0.375000 0.050048
vt 0.375000 0.239665
vt 0.375000 0.236024
vt 0.375000 0.739665
vt 0.375000 0.736024
vt 0.375000 0.395165
vt 0.375000 0.478352
vt 0.375000 0.486024
vt 0.375000 0.895165
vt 0.375000 0.854835
vt 0.375000 0.966778
vt 0.375000 0.895165
vt 0.375000 0.988687
vt 0.375000 0.894865
vt 0.375000 0.761313
vt 0.375000 0.783222
vt 0.375000 0.894857
vt 0.375000 0.854835
vt 0.375000 0.085346
vt 0.375000 0.085420
vt 0.375000 0.027151
vt 0.375000 0.164580
vt 0.375000 0.164654
vt 0.375000 0.222849
vt 0.375000 0.085678
vt 0.375000 0.159688
vt 0.375000 0.163993
vt 0.375000 0.158885
vt 0.375000 0.163964
vt 0.375000 0.164322
vt 0.375000 0.164553
vt 0.375000 0.165956
vt 0.375000 0.163755
vt 0.375000 0.160157
vt 0.375000 0.261313
vt 0.375000 0.354835
vt 0.375000 0.283222
vt 0.375000 0.395165
vt 0.375000 0.394865
vt 0.375000 0.466778
vt 0.375000 0.488687
vt 0.375000 0.394857
vt 0.375000 0.395165
vt 0.375000 0.354835
vt 0.375000 0.664580
vt 0.375000 0.664654
vt 0.375000 0.722849
vt 0.375000 0.585346
vt 0.375000 0.585420
vt 0.375000 0.527151
vt 0.375000 0.659688
vt 0.375000 0.663993
vt 0.375000 0.658885
vt 0.375000 0.585678
vt 0.375000 0.663964
vt 0.375000 0.664553
vt 0.375000 0.663755
vt 0.375000 0.664322
vt 0.375000 0.660157
s 0
usemtl 
f 47/39/11 45/40/11 49/40/11 51/39/11
f 50/41/12 52/42/12 51/39/12 49/43/12
f 46/44/13 48/42/13 52/42/13 50/44/13
f 48/42/14 47/39/14 51/39/14 52/42/14
f 45/45/15 46/44/15 50/44/15 49/45/15
f 53/46/16 56/47/16 55/45/16
f 56/47/17 54/45/17 55/45/17
f 57/48/18 60/49/18 59/44/18
f 60/49/19 58/44/19 59/44/19
f 61/50/20 64/51/20 63/39/20
f 64/51/21 62/39/21 63/39/21
f 65/52/22 68/53/22 67/42/22
f 68/53/23 66/42/23 67/42/23
f 69/45/24 72/54/24 71/45/24
f 72/54/24 70/55/24 71/45/24
f 73/56/24 76/57/24 75/44/24
f 76/57/24 74/44/24 75/44/24
f 77/58/24 80/59/24 79/39/24
f 80/59/24 78/39/24 79/39/24
f 81/60/24 84/61/24 83/42/24
f 84/61/24 82/42/24 83/42/24
f 61/50/25 78/62/25 80/39/25 64/39/25
f 64/39/26 80/39/26 77/58/26 62/58/26
f 81/60/27 66/60/27 68/42/27 84/42/27
f 84/42/28 68/42/28 65/52/28 82/52/28
f 57/48/29 74/63/29 76/44/29 60/44/29
f 60/44/30 76/44/30 73/56/30 58/64/30
f 69/65/31 54/65/31 56/40/31 72/40/31
f 72/45/32 56/45/32 53/46/32 70/66/32
f 53/46/15 58/64/15 73/56/15 70/66/15
f 43/39/11 41/40/11 55/40/11 54/65/11 61/50/11 63/39/11
f 41/45/15 42/44/15 59/44/15 58/64/15 53/46/15 55/45/15
f 61/50/11 54/65/11 69/65/11 78/62/11
f 57/48/13 66/60/13 81/60/13 74/63/13
f 42/44/13 44/42/13 67/42/13 66/60/13 57/48/13 59/44/13
f 44/42/14 43/39/14 63/39/14 62/58/14 65/52/14 67/42/14
f 65/52/14 62/58/14 77/58/14 82/52/14
f 79/39/24 78/62/24 69/65/24 71/40/24 45/40/24 47/39/24
f 71/45/24 70/66/24 73/56/24 75/44/24 46/44/24 45/45/24
f 75/44/24 74/63/24 81/60/24 83/42/24 48/42/24 46/44/24
f 83/42/24 82/52/24 77/58/24 79/39/24 47/39/24 48/42/24
f 107/67/33 90/68/33 97/69/33 109/70/33
f 109/70/34 97/69/34 96/71/34 110/72/34
f 110/72/35 96/71/35 95/73/35 111/74/35
f 111/74/36 95/73/36 94/41/36 112/75/36
f 112/75/37 94/76/37 93/77/37 113/78/37
f 113/78/38 93/77/38 92/79/38 114/80/38
f 114/80/39 92/79/39 91/81/39 115/82/39
f 115/82/40 91/81/40 89/83/40 108/84/40
f 98/85/41 117/86/41 124/87/41 100/88/41
f 100/88/42 124/87/42 123/89/42 101/90/42
f 101/90/43 123/89/43 122/91/43 102/92/43
f 102/92/44 122/91/44 121/93/44 103/94/44
f 103/95/45 121/93/45 120/96/45 104/97/45
f 104/97/46 120/96/46 119/98/46 105/99/46
f 105/99/47 119/98/47 118/100/47 106/101/47
f 106/101/48 118/100/48 116/102/48 99/103/48
f 90/68/49 107/67/49 87/39/49 85/43/49
f 85/45/15 86/104/15 98/105/15 100/106/15 101/107/15 102/108/15 103/95/15 104/97/15 105/99/15 106/101/15 99/103/15 89/83/15 91/81/15 92/79/15 93/77/15 94/76/15 95/109/15 96/110/15 97/111/15 90/112/15
f 89/83/50 99/103/50 116/102/50 108/84/50
f 117/86/51 98/85/51 86/113/51 88/114/51
f 107/67/14 109/70/14 110/72/14 111/74/14 112/75/14 113/78/14 114/80/14 115/82/14 108/84/14 116/102/14 118/100/14 119/98/14 120/96/14 121/93/14 122/91/14 123/89/14 124/87/14 117/86/14 88/114/14 87/39/14
f 125/43/52 144/39/52 151/115/52 127/43/52
f 127/43/53 151/115/53 150/116/53 128/117/53
f 128/117/54 150/116/54 149/118/54 129/43/54
f 129/43/55 149/118/55 148/119/55 130/43/55
f 130/40/56 148/119/56 147/120/56 131/121/56
f 131/121/57 147/120/57 146/122/57 132/123/57
f 132/123/58 146/122/58 145/124/58 133/125/58
f 133/125/59 145/124/59 143/126/59 126/127/59
f 152/114/60 135/113/60 142/113/60 154/128/60
f 154/128/61 142/113/61 141/113/61 155/129/61
f 155/129/62 141/113/62 140/113/62 156/130/62
f 156/130/63 140/113/63 139/113/63 157/131/63
f 157/131/64 139/132/64 138/133/64 158/134/64
f 158/134/65 138/133/65 137/135/65 159/136/65
f 159/136/66 137/135/66 136/137/66 160/138/66
f 160/138/67 136/137/67 134/139/67 153/140/67
f 86/104/15 85/45/15 125/45/15 127/141/15 128/142/15 129/143/15 130/144/15 131/145/15 132/146/15 133/147/15 126/148/15 134/149/15 136/150/15 137/151/15 138/152/15 139/153/15 140/154/15 141/155/15 142/156/15 135/104/15
f 143/126/68 153/140/68 134/139/68 126/127/68
f 85/43/69 87/39/69 144/39/69 125/43/69
f 88/114/70 86/113/70 135/113/70 152/114/70
f 87/39/14 88/114/14 152/114/14 154/128/14 155/129/14 156/130/14 157/131/14 158/134/14 159/136/14 160/138/14 153/140/14 143/126/14 145/124/14 146/122/14 147/120/14 148/119/14 149/118/14 150/116/14 151/115/14 144/39/14
f 161/45/15 165/104/15 168/157/15 167/44/15
f 167/44/13 168/157/13 177/158/13 173/42/13
f 173/42/14 177/158/14 171/114/14 169/39/14
f 169/39/11 171/114/11 165/132/11 161/40/11
f 161/45/71 167/44/71 181/44/71 179/45/71
f 177/158/24 168/94/24 165/113/24 171/114/24
f 184/42/14 183/39/14 190/39/14 192/42/14
f 173/42/72 169/39/72 183/39/72 184/42/72
f 169/39/11 161/40/11 179/40/11 183/39/11
f 167/44/13 173/42/13 184/42/13 181/44/13
f 207/42/12 208/42/12 192/42/12 190/39/12 205/39/12 206/39/12
f 179/45/15 181/44/15 188/44/15 186/45/15
f 183/39/11 179/40/11 186/40/11 190/39/11
f 181/44/13 184/42/13 192/42/13 188/44/13
f 186/45/12 188/44/12 209/44/12 210/45/12
f 190/39/12 186/40/12 210/40/12 205/39/12
f 188/44/12 192/42/12 208/42/12 209/44/12
f 205/39/73 210/40/73 170/159/73 176/39/73 206/39/73
f 208/42/11 207/42/11 178/42/11 172/44/11 209/44/11
f 176/39/15 178/42/15 207/42/15 206/39/15
f 209/44/14 172/44/14 170/45/14 210/45/14
f 193/45/12 195/45/12 219/160/12
f 220/161/12 219/160/12 195/45/12 194/162/12
f 198/44/12 221/163/12 222/164/12 196/56/12
f 198/44/12 197/44/12 221/163/12
f 199/58/12 201/39/12 224/165/12 223/166/12
f 201/39/12 200/39/12 224/165/12
f 202/167/12 204/42/12 225/168/12
f 226/169/12 225/168/12 204/42/12 203/42/12
f 201/39/12 176/39/12 170/159/12 195/159/12 193/170/12 200/171/12
f 170/45/12 172/44/12 198/44/12 196/56/12 194/162/12 195/45/12
f 172/44/12 178/42/12 204/42/12 202/167/12 197/63/12 198/44/12
f 204/42/12 178/42/12 176/39/12 201/39/12 199/58/12 203/52/12
f 162/40/13 228/172/13 175/173/13 193/170/13 219/174/13 220/40/13
f 213/175/13 185/171/13 200/171/13 193/170/13 175/173/13
f 224/176/13 200/171/13 185/171/13 231/177/13 164/39/13 223/39/13
f 213/175/74 175/173/74 214/178/74
f 228/172/13 244/170/13 175/173/13
f 243/179/13 185/171/13 213/175/13 214/178/13 175/173/13 244/170/13
f 185/171/13 243/179/13 231/177/13
f 162/45/14 220/45/14 194/180/14 174/181/14 227/182/14
f 182/183/14 196/184/14 222/44/14 163/44/14 230/185/14
f 227/182/14 174/181/14 235/186/14
f 240/187/14 174/181/14 194/180/14 196/184/14 182/183/14 218/188/14 236/189/14
f 236/189/14 218/188/14 240/187/14
f 218/188/14 182/183/14 217/190/14
f 182/183/14 230/185/14 241/191/14 242/192/14 237/193/14
f 238/194/14 242/192/14 241/191/14 235/186/14 174/181/14 240/187/14 239/195/14 217/190/14
f 218/188/14 217/190/14 239/195/14 240/187/14
f 182/183/14 237/193/14 242/192/14
f 217/190/14 182/183/14 242/192/14 238/194/14
f 163/44/11 222/44/11 221/196/11 197/63/11 180/197/11 229/198/11
f 180/197/11 197/63/11 202/167/11 191/199/11 216/200/11
f 226/42/11 166/42/11 234/201/11 191/199/11 202/167/11 225/202/11
f 215/203/75 216/200/75 191/199/75
f 191/199/11 234/201/11 246/204/11
f 180/197/11 216/200/11 215/203/11 191/199/11 246/204/11 245/205/11
f 229/198/11 180/197/11 245/205/11
f 187/206/15 199/207/15 223/39/15 164/39/15 232/208/15
f 226/42/15 203/209/15 189/210/15 233/211/15 166/42/15
f 251/212/15 189/210/15 203/209/15 199/207/15 187/206/15 211/213/15 248/214/15
f 189/210/15 253/215/15 233/211/15
f 187/206/15 212/216/15 211/213/15
f 212/216/15 187/206/15 250/217/15 249/218/15
f 232/208/15 247/219/15 250/217/15 187/206/15
f 249/218/15 250/217/15 247/219/15 253/215/15 189/210/15 251/212/15 252/220/15 212/216/15
f 251/212/15 211/213/15 212/216/15 252/220/15
f 211/213/15 251/212/15 248/214/15
f 276/67/76 259/68/76 266/69/76 278/70/76
f 278/70/77 266/69/77 265/71/77 279/72/77
f 279/72/78 265/71/78 264/73/78 280/74/78
f 280/74/79 264/73/79 263/41/79 281/75/79
f 281/75/80 263/76/80 262/77/80 282/78/80
f 282/78/81 262/77/81 261/79/81 283/80/81
f 283/80/82 261/79/82 260/81/82 284/82/82
f 284/82/83 260/81/83 258/83/83 277/84/83
f 267/85/84 286/86/84 293/87/84 269/88/84
f 269/88/85 293/87/85 292/89/85 270/90/85
f 270/90/86 292/89/86 291/91/86 271/92/86
f 271/92/87 291/91/87 290/93/87 272/94/87
f 272/95/88 290/93/88 289/96/88 273/97/88
f 273/97/89 289/96/89 288/98/89 274/99/89
f 274/99/90 288/98/90 287/100/90 275/101/90
f 275/101/91 287/100/91 285/102/91 268/103/91
f 259/68/92 276/67/92 256/39/92 254/43/92
f 254/45/15 255/104/15 267/105/15 269/106/15 270/107/15 271/108/15 272/95/15 273/97/15 274/99/15 275/101/15 268/103/15 258/83/15 260/81/15 261/79/15 262/77/15 263/76/15 264/109/15 265/110/15 266/111/15 259/112/15
f 258/83/93 268/103/93 285/102/93 277/84/93
f 286/86/94 267/85/94 255/113/94 257/114/94
f 276/67/14 278/70/14 279/72/14 280/74/14 281/75/14 282/78/14 283/80/14 284/82/14 277/84/14 285/102/14 287/100/14 288/98/14 289/96/14 290/93/14 291/91/14 292/89/14 293/87/14 286/86/14 257/114/14 256/39/14
f 294/43/95 313/39/95 320/115/95 296/43/95
f 296/43/96 320/115/96 319/116/96 297/117/96
f 297/117/97 319/116/97 318/118/97 298/43/97
f 298/43/98 318/118/98 317/119/98 299/43/98
f 299/40/99 317/119/99 316/120/99 300/121/99
f 300/121/100 316/120/100 315/122/100 301/123/100
f 301/123/101 315/122/101 314/124/101 302/125/101
f 302/125/102 314/124/102 312/126/102 295/127/102
f 321/114/103 304/113/103 311/113/103 323/128/103
f 323/128/104 311/113/104 310/113/104 324/129/104
f 324/129/105 310/113/105 309/113/105 325/130/105
f 325/130/106 309/113/106 308/113/106 326/131/106
f 326/131/107 308/132/107 307/133/107 327/134/107
f 327/134/108 307/133/108 306/135/108 328/136/108
f 328/136/109 306/135/109 305/137/109 329/138/109
f 329/138/110 305/137/110 303/139/110 322/140/110
f 255/104/15 254/45/15 294/45/15 296/141/15 297/142/15 298/143/15 299/144/15 300/145/15 301/146/15 302/147/15 295/148/15 303/149/15 305/150/15 306/151/15 307/152/15 308/153/15 309/154/15 310/155/15 311/156/15 304/104/15
f 312/126/111 322/140/111 303/139/111 295/127/111
f 254/43/92 256/39/92 313/39/92 294/43/92
f 257/114/94 255/113/94 304/113/94 321/114/94
f 256/39/14 257/114/14 321/114/14 323/128/14 324/129/14 325/130/14 326/131/14 327/134/14 328/136/14 329/138/14 322/140/14 312/126/14 314/124/14 315/122/14 316/120/14 317/119/14 318/118/14 319/116/14 320/115/14 313/39/14
f 330/45/15 331/104/15 333/157/15 332/44/15
f 332/44/13 333/157/13 337/158/13 336/42/13
f 336/42/14 337/158/14 335/114/14 334/39/14
f 334/39/11 335/114/11 331/132/11 330/40/11
f 332/41/12 336/42/12 334/39/12 330/43/12
f 337/158/24 333/94/24 331/113/24 335/114/24
usemtl Material.002
f 338/45/15 339/104/15 341/157/15 340/44/15
f 340/44/13 341/157/13 345/158/13 344/42/13
f 344/42/14 345/158/14 343/114/14 342/39/14
f 342/39/11 343/114/11 339/132/11 338/40/11
f 340/41/12 344/42/12 342/39/12 338/43/12
f 345/158/24 341/94/24 339/113/24 343/114/24
