# Blender 5.0.1
# www.blender.org
mtllib model.mtl
o Ходовая_балка
v 1.639341 -0.013782 0.159063
v 1.552949 -0.013782 0.072671
v 1.552949 1.797317 0.072671
v 1.639341 1.797317 0.159063
v 1.552949 -0.013782 -0.072671
v 1.639341 -0.013782 -0.159063
v 1.639341 1.797317 -0.159063
v 1.552949 1.797317 -0.072671
v 1.871075 -0.013782 0.072671
v 1.784683 -0.013782 0.159063
v 1.784683 1.797317 0.159063
v 1.871075 1.797317 0.072671
v 1.784683 -0.013782 -0.159063
v 1.871075 -0.013782 -0.072671
v 1.871075 1.797317 -0.072671
v 1.784683 1.797317 -0.159063
v -1.623602 -0.013782 0.159063
v -1.709994 -0.013782 0.072671
v -1.709994 1.797317 0.072671
v -1.623602 1.797317 0.159063
v -1.709994 -0.013782 -0.072671
v -1.623602 -0.013782 -0.159063
v -1.623602 1.797317 -0.159063
v -1.709994 1.797317 -0.072671
v -1.391868 -0.013782 0.072671
v -1.478260 -0.013782 0.159063
v -1.478260 1.797317 0.159063
v -1.391868 1.797317 0.072671
v -1.478260 -0.013782 -0.159063
v -1.391868 -0.013782 -0.072671
v -1.391868 1.797317 -0.072671
v -1.478260 1.797317 -0.159063
v -1.721284 1.699662 0.261883
v -1.721284 2.223427 0.261883
v -1.721284 1.699662 -0.261882
v -1.721284 2.223427 -0.261882
v 1.885748 1.699662 0.261883
v 1.885748 2.223427 0.261883
v 1.885748 1.699662 -0.261882
v 1.885748 2.223427 -0.261882
vn -0.7071 -0.0000 0.7071
vn -0.7071 -0.0000 -0.7071
vn 0.7071 -0.0000 -0.7071
vn 0.7071 -0.0000 0.7071
vn -0.0000 -1.0000 -0.0000
vn -1.0000 -0.0000 -0.0000
vn -0.0000 -0.0000 1.0000
vn -0.0000 1.0000 -0.0000
vn -0.0000 -0.0000 -1.0000
vn 1.0000 -0.0000 -0.0000
vt 0.625000 0.000000
vt 0.375000 0.067891
vt 0.375000 0.000000
vt 0.375000 0.317891
vt 0.625000 0.182109
vt 0.625000 0.317891
vt 0.375000 0.567891
vt 0.647630 0.454739
vt 0.625000 0.567891
vt 0.352370 0.795261
vt 0.625000 0.682109
vt 0.647630 0.795261
vt 0.125000 0.682109
vt 0.625000 0.067891
vt 0.375000 0.182109
vt 0.375000 0.932109
vt 0.875000 0.567891
vt 0.807109 0.750000
vt 0.352370 0.454739
vt 0.375000 0.682109
vt 0.375000 0.250000
vt 0.625000 0.250000
vt 0.375000 0.500000
vt 0.625000 0.500000
vt 0.375000 0.750000
vt 0.625000 0.750000
vt 0.375000 1.000000
vt 0.125000 0.750000
vt 0.125000 0.500000
vt 0.875000 0.500000
vt 0.125000 0.567891
vt 0.192891 0.500000
vt 0.192891 0.750000
vt 0.625000 0.932109
vt 0.807109 0.500000
vt 0.875000 0.682109
vt 0.625000 1.000000
vt 0.875000 0.750000
s 1
usemtl Material.001
f 4/1/1 2/2/1 1/3/1
f 6/4/2 8/5/2 7/6/2
f 14/7/3 16/8/3 15/9/3
f 10/10/4 12/11/4 11/12/4
f 14/7/5 10/10/5 2/13/5
f 3/14/6 5/15/6 2/2/6
f 11/12/7 1/16/7 10/10/7
f 8/17/8 4/18/8 12/11/8
f 7/6/9 13/19/9 6/4/9
f 15/9/10 9/20/10 14/7/10
f 20/1/1 18/2/1 17/3/1
f 22/4/2 24/5/2 23/6/2
f 30/7/3 32/8/3 31/9/3
f 26/10/4 28/11/4 27/12/4
f 30/7/5 26/10/5 18/13/5
f 19/14/6 21/15/6 18/2/6
f 27/12/7 17/16/7 26/10/7
f 24/17/8 20/18/8 28/11/8
f 23/6/9 29/19/9 22/4/9
f 31/9/10 25/20/10 30/7/10
f 34/1/6 35/21/6 33/3/6
f 36/22/9 39/23/9 35/21/9
f 40/24/10 37/25/10 39/23/10
f 38/26/7 33/27/7 37/25/7
f 39/23/5 33/28/5 35/29/5
f 36/30/8 38/26/8 40/24/8
f 4/1/1 3/14/1 2/2/1
f 6/4/2 5/15/2 8/5/2
f 14/7/3 13/19/3 16/8/3
f 10/10/4 9/20/4 12/11/4
f 2/13/5 5/31/5 6/32/5
f 6/32/5 13/19/5 14/7/5
f 14/7/5 9/20/5 10/10/5
f 10/10/5 1/33/5 2/13/5
f 2/13/5 6/32/5 14/7/5
f 3/14/6 8/5/6 5/15/6
f 11/12/7 4/34/7 1/16/7
f 12/11/8 15/9/8 16/8/8
f 16/8/8 7/35/8 8/17/8
f 8/17/8 3/36/8 4/18/8
f 4/18/8 11/12/8 12/11/8
f 12/11/8 16/8/8 8/17/8
f 7/6/9 16/8/9 13/19/9
f 15/9/10 12/11/10 9/20/10
f 20/1/1 19/14/1 18/2/1
f 22/4/2 21/15/2 24/5/2
f 30/7/3 29/19/3 32/8/3
f 26/10/4 25/20/4 28/11/4
f 18/13/5 21/31/5 22/32/5
f 22/32/5 29/19/5 30/7/5
f 30/7/5 25/20/5 26/10/5
f 26/10/5 17/33/5 18/13/5
f 18/13/5 22/32/5 30/7/5
f 19/14/6 24/5/6 21/15/6
f 27/12/7 20/34/7 17/16/7
f 28/11/8 31/9/8 32/8/8
f 32/8/8 23/35/8 24/17/8
f 24/17/8 19/36/8 20/18/8
f 20/18/8 27/12/8 28/11/8
f 28/11/8 32/8/8 24/17/8
f 23/6/9 32/8/9 29/19/9
f 31/9/10 28/11/10 25/20/10
f 34/1/6 36/22/6 35/21/6
f 36/22/9 40/24/9 39/23/9
f 40/24/10 38/26/10 37/25/10
f 38/26/7 34/37/7 33/27/7
f 39/23/5 37/25/5 33/28/5
f 36/30/8 34/38/8 38/26/8
o РТК
v -0.588332 1.733116 0.412172
v -0.588332 1.878906 0.631611
v -0.324877 1.733117 0.412172
v -0.324877 1.878906 0.631611
v -0.588332 2.024547 0.374742
v -0.588332 1.844196 0.338374
v -0.588332 2.008420 0.354986
v -0.588332 1.988749 0.338755
v -0.588332 1.966289 0.326673
v -0.588332 1.941904 0.319206
v -0.588332 1.916530 0.316639
v -0.588332 1.891143 0.319072
v -0.588332 1.866719 0.326411
v -0.588332 1.989986 0.557813
v -0.588332 2.026354 0.377462
v -0.588332 2.009742 0.541686
v -0.588332 2.025973 0.522015
v -0.588332 2.038054 0.499555
v -0.588332 2.045522 0.475170
v -0.588332 2.048088 0.449796
v -0.588332 2.045655 0.424410
v -0.588332 2.038317 0.399985
v -0.324877 1.844196 0.338374
v -0.324877 2.024547 0.374742
v -0.324877 1.866719 0.326411
v -0.324877 1.891143 0.319072
v -0.324877 1.916530 0.316639
v -0.324877 1.941904 0.319206
v -0.324877 1.966289 0.326673
v -0.324877 1.988749 0.338755
v -0.324877 2.008420 0.354986
v -0.324877 2.026354 0.377462
v -0.324877 1.989986 0.557813
v -0.324877 2.038317 0.399985
v -0.324877 2.045655 0.424410
v -0.324877 2.048088 0.449796
v -0.324877 2.045522 0.475170
v -0.324877 2.038054 0.499555
v -0.324877 2.025973 0.522015
v -0.324877 2.009742 0.541686
v -0.588331 1.501607 0.565981
v -0.588332 1.465583 0.744626
v -0.588331 1.482037 0.581955
v -0.588331 1.465960 0.601440
v -0.588331 1.453993 0.623688
v -0.588331 1.446596 0.647842
v -0.588331 1.444054 0.672976
v -0.588332 1.446464 0.698123
v -0.588332 1.453733 0.722316
v -0.588332 1.468751 0.749395
v -0.588332 1.647397 0.785420
v -0.588332 1.484726 0.768965
v -0.588332 1.504211 0.785043
v -0.588332 1.526459 0.797010
v -0.588332 1.550613 0.804406
v -0.588332 1.575747 0.806949
v -0.588332 1.600893 0.804539
v -0.588332 1.625087 0.797269
v -0.324877 1.465583 0.744626
v -0.324877 1.501607 0.565981
v -0.324877 1.453733 0.722316
v -0.324877 1.446464 0.698123
v -0.324877 1.444054 0.672976
v -0.324877 1.446596 0.647842
v -0.324877 1.453993 0.623688
v -0.324877 1.465960 0.601440
v -0.324877 1.482037 0.581955
v -0.324877 1.647397 0.785420
v -0.324877 1.468751 0.749395
v -0.324877 1.625087 0.797269
v -0.324877 1.600893 0.804539
v -0.324877 1.575747 0.806949
v -0.324877 1.550613 0.804406
v -0.324877 1.526459 0.797010
v -0.324877 1.504211 0.785043
v -0.324877 1.484726 0.768965
v -0.810139 1.618464 0.579760
v -0.810139 2.186455 0.579760
v -0.810139 1.618464 0.308681
v -0.810139 2.186455 0.308681
v -0.588418 1.618464 0.579760
v -0.588418 2.186455 0.579760
v -0.588418 1.618464 0.308681
v -0.588418 2.186455 0.308681
v -1.050187 1.484819 0.318699
v -1.050187 2.401762 0.318699
v -1.050187 1.484819 -0.305657
v -1.050187 2.401762 -0.305657
v 0.131686 1.484819 0.318699
v 0.131686 2.401762 0.318699
v 0.131686 1.484819 -0.305657
v 0.131686 2.401762 -0.305657
vn -0.0000 -0.4691 -0.8832
vn -0.0000 -0.2878 -0.9577
vn -0.0000 -0.0954 -0.9954
vn -0.0000 0.1006 -0.9949
vn -0.0000 0.2928 -0.9562
vn -0.0000 0.4737 -0.8807
vn -0.0000 0.6364 -0.7713
vn -0.0000 0.7747 -0.6324
vn -0.0000 0.6324 0.7747
vn -0.0000 0.7713 0.6364
vn -0.0000 0.8807 0.4737
vn -0.0000 0.9562 0.2928
vn -0.0000 0.9949 0.1006
vn -0.0000 0.9954 -0.0954
vn -0.0000 0.9577 -0.2878
vn -0.0000 0.8832 -0.4691
vn -0.0000 -0.5534 -0.8329
vn -1.0000 -0.0000 -0.0000
vn -0.0000 0.8329 -0.5534
vn -0.0000 0.5534 0.8329
vn 1.0000 -0.0000 -0.0000
vn -0.0000 -0.6324 -0.7747
vn -0.0000 -0.7713 -0.6364
vn -0.0000 -0.8807 -0.4737
vn -0.0000 -0.9562 -0.2928
vn -0.0000 -0.9949 -0.1006
vn -0.0000 -0.9954 0.0954
vn -0.0000 -0.9577 0.2878
vn -0.0000 -0.8832 0.4691
vn -0.0000 0.4691 0.8832
vn -0.0000 0.2878 0.9577
vn -0.0000 0.0954 0.9954
vn -0.0000 -0.1006 0.9949
vn -0.0000 -0.2928 0.9562
vn -0.0000 -0.4737 0.8807
vn -0.0000 -0.6364 0.7713
vn -0.0000 -0.7747 0.6324
vn -0.0000 -0.8329 0.5534
vn -0.0000 -0.0000 -1.0000
vn -0.0000 -0.0000 1.0000
vn -0.0000 -1.0000 -0.0000
vn -0.0000 1.0000 -0.0000
vt 0.125000 0.623451
vt 0.375791 0.599367
vt 0.375000 0.623451
vt 0.125000 0.599367
vt 0.378132 0.576208
vt 0.125000 0.576208
vt 0.381935 0.554865
vt 0.125000 0.554865
vt 0.387053 0.512053
vt 0.393079 0.231921
vt 0.429865 0.506935
vt 0.429865 0.243065
vt 0.451208 0.503132
vt 0.451208 0.246868
vt 0.474367 0.500791
vt 0.474367 0.249209
vt 0.498451 0.500000
vt 0.625000 0.623451
vt 0.875000 0.599367
vt 0.875000 0.623451
vt 0.624209 0.599367
vt 0.875000 0.576208
vt 0.621868 0.576208
vt 0.875000 0.554865
vt 0.618065 0.554865
vt 0.875000 0.500000
vt 0.612947 0.512053
vt 0.570135 0.243065
vt 0.606921 0.231921
vt 0.570135 0.506935
vt 0.548792 0.246868
vt 0.548792 0.503132
vt 0.525633 0.249209
vt 0.525633 0.500791
vt 0.501549 0.250000
vt 0.125000 0.750000
vt 0.375000 0.126549
vt 0.498451 0.250000
vt 0.875000 0.750000
vt 0.625000 0.750000
vt 0.375000 0.750000
vt 0.375783 0.750000
vt 0.125000 0.750000
vt 0.381869 0.750000
vt 0.386939 0.750000
vt 0.429346 1.000000
vt 0.375000 1.000000
vt 0.450487 0.750000
vt 0.450487 1.000000
vt 0.473427 1.000000
vt 0.473427 0.750000
vt 0.497283 1.000000
vt 0.624217 0.750000
vt 0.621897 0.750000
vt 0.618131 0.750000
vt 0.613061 0.750000
vt 0.625000 1.000000
vt 0.570654 0.750000
vt 0.549513 1.000000
vt 0.549513 0.750000
vt 0.526573 0.750000
vt 0.526573 1.000000
vt 0.502717 0.750000
vt 0.429346 0.000000
vt 0.589184 0.000000
vt 0.625000 0.000000
vt 0.497283 0.750000
vt 0.375000 0.250000
vt 0.375000 0.000000
vt 0.625000 0.250000
vt 0.375000 0.500000
vt 0.625000 0.500000
vt 0.125000 0.500000
vt 0.501549 0.500000
vt 0.625000 0.126549
vt 0.622628 0.150633
vt 0.615603 0.173792
vt 0.604195 0.195135
vt 0.395805 0.195135
vt 0.384397 0.173792
vt 0.377372 0.150633
vt 0.378103 0.750000
vt 0.429346 0.750000
vt 0.570654 1.000000
vt 0.502717 1.000000
vt 0.377350 0.000000
vt 0.384308 0.000000
vt 0.395608 0.000000
vt 0.410816 0.000000
vt 0.450487 0.000000
vt 0.473427 0.000000
vt 0.497283 0.000000
vt 0.502717 0.000000
vt 0.526573 0.000000
vt 0.549513 0.000000
vt 0.570654 0.000000
vt 0.604392 0.000000
vt 0.615692 0.000000
vt 0.622650 0.000000
s 0
usemtl 
f 46/39/11 65/40/11 63/41/11
f 53/42/12 66/43/12 65/40/12
f 52/44/13 67/45/13 66/43/13
f 51/46/14 68/47/14 67/45/14
f 50/48/15 69/49/15 68/47/15
f 49/50/16 70/51/16 69/49/16
f 48/52/17 71/53/17 70/51/17
f 47/54/18 64/55/18 71/53/18
f 73/56/19 56/57/19 54/58/19
f 80/59/20 57/60/20 56/57/20
f 79/61/21 58/62/21 57/60/21
f 78/63/22 59/64/22 58/62/22
f 77/65/23 60/66/23 59/67/23
f 76/68/24 61/69/24 60/66/24
f 75/70/25 62/71/25 61/69/25
f 74/72/26 55/73/26 62/71/26
f 63/41/27 41/74/27 46/39/27
f 60/66/28 50/48/28 46/75/28
f 55/73/29 64/55/29 45/76/29
f 73/56/30 42/77/30 44/78/30
f 71/53/31 79/61/31 43/79/31
f 100/79/32 83/74/32 81/74/32
f 107/80/33 84/81/33 83/74/33
f 84/81/34 105/82/34 85/74/34
f 105/82/35 86/74/35 85/74/35
f 104/83/36 87/84/36 86/85/36
f 87/84/37 102/86/37 88/87/37
f 102/86/38 89/88/38 88/87/38
f 101/89/39 82/90/39 89/88/39
f 91/77/40 110/91/40 108/78/40
f 98/77/41 111/92/41 110/91/41
f 97/77/42 112/93/42 111/92/42
f 96/77/43 113/94/43 112/93/43
f 95/95/44 114/96/44 113/94/44
f 114/96/45 93/97/45 115/98/45
f 93/97/46 116/99/46 115/98/46
f 92/100/47 109/101/47 116/99/47
f 87/102/28 95/103/28 91/104/28
f 109/101/48 82/90/48 99/105/48
f 41/74/27 100/79/27 81/74/27
f 42/77/30 108/78/30 44/78/30
f 114/96/31 104/83/31 100/79/31
f 118/104/28 119/106/28 117/107/28
f 120/108/49 123/109/49 119/106/49
f 124/110/31 121/79/31 123/109/31
f 121/79/50 118/95/50 117/85/50
f 123/109/51 117/74/51 119/111/51
f 120/64/52 122/78/52 124/110/52
f 46/39/11 53/42/11 65/40/11
f 53/42/12 52/44/12 66/43/12
f 52/44/13 51/46/13 67/45/13
f 51/46/14 50/111/14 68/47/14
f 50/48/15 49/50/15 69/49/15
f 49/50/16 48/52/16 70/51/16
f 48/52/17 47/54/17 71/53/17
f 47/54/18 45/76/18 64/55/18
f 73/56/19 80/59/19 56/57/19
f 80/59/20 79/61/20 57/60/20
f 79/61/21 78/63/21 58/62/21
f 78/63/22 77/65/22 59/64/22
f 77/65/23 76/68/23 60/66/23
f 76/68/24 75/70/24 61/69/24
f 75/70/25 74/72/25 62/71/25
f 74/72/26 72/112/26 55/73/26
f 63/41/27 43/79/27 41/74/27
f 46/75/28 41/107/28 42/104/28
f 42/104/28 54/113/28 56/114/28
f 56/114/28 57/115/28 58/116/28
f 58/116/28 59/67/28 60/66/28
f 60/66/28 61/69/28 62/71/28
f 62/71/28 55/73/28 45/76/28
f 45/76/28 47/54/28 48/52/28
f 48/52/28 49/50/28 50/48/28
f 50/48/28 51/117/28 52/118/28
f 52/118/28 53/119/28 46/75/28
f 46/75/28 42/104/28 56/114/28
f 56/114/28 58/116/28 60/66/28
f 60/66/28 62/71/28 45/76/28
f 45/76/28 48/52/28 50/48/28
f 50/48/28 52/118/28 46/75/28
f 46/75/28 56/114/28 60/66/28
f 60/66/28 45/76/28 50/48/28
f 55/73/29 72/112/29 64/55/29
f 73/56/30 54/58/30 42/77/30
f 43/79/31 63/41/31 65/40/31
f 65/40/31 66/43/31 67/45/31
f 67/45/31 68/47/31 69/49/31
f 69/49/31 70/51/31 71/53/31
f 71/53/31 64/55/31 72/112/31
f 72/112/31 74/72/31 75/70/31
f 75/70/31 76/68/31 77/65/31
f 77/65/31 78/63/31 79/61/31
f 79/61/31 80/59/31 73/56/31
f 73/56/31 44/78/31 43/79/31
f 43/79/31 65/40/31 67/45/31
f 67/45/31 69/49/31 71/53/31
f 71/53/31 72/112/31 75/70/31
f 75/70/31 77/65/31 79/61/31
f 79/61/31 73/56/31 43/79/31
f 43/79/31 67/45/31 71/53/31
f 71/53/31 75/70/31 79/61/31
f 100/79/32 107/80/32 83/74/32
f 107/80/33 106/120/33 84/81/33
f 84/81/34 106/120/34 105/82/34
f 105/82/35 104/83/35 86/74/35
f 104/83/36 103/121/36 87/84/36
f 87/84/37 103/121/37 102/86/37
f 102/86/38 101/89/38 89/88/38
f 101/89/39 99/105/39 82/90/39
f 91/77/40 98/77/40 110/91/40
f 98/77/41 97/77/41 111/92/41
f 97/77/42 96/77/42 112/93/42
f 96/77/43 95/77/43 113/94/43
f 95/95/44 94/122/44 114/96/44
f 114/96/45 94/122/45 93/97/45
f 93/97/46 92/100/46 116/99/46
f 92/100/47 90/123/47 109/101/47
f 91/104/28 42/104/28 41/107/28
f 41/107/28 81/107/28 83/124/28
f 83/124/28 84/125/28 85/126/28
f 85/126/28 86/127/28 87/102/28
f 87/102/28 88/128/28 89/129/28
f 89/129/28 82/130/28 90/131/28
f 90/131/28 92/132/28 93/133/28
f 93/133/28 94/134/28 95/103/28
f 95/103/28 96/135/28 97/136/28
f 97/136/28 98/137/28 91/104/28
f 91/104/28 41/107/28 83/124/28
f 83/124/28 85/126/28 87/102/28
f 87/102/28 89/129/28 90/131/28
f 90/131/28 93/133/28 95/103/28
f 95/103/28 97/136/28 91/104/28
f 91/104/28 83/124/28 87/102/28
f 87/102/28 90/131/28 95/103/28
f 109/101/48 90/123/48 82/90/48
f 41/74/27 43/79/27 100/79/27
f 42/77/30 91/77/30 108/78/30
f 100/79/31 43/79/31 44/78/31
f 44/78/31 108/78/31 110/91/31
f 110/91/31 111/92/31 112/93/31
f 112/93/31 113/94/31 114/96/31
f 114/96/31 115/98/31 116/99/31
f 116/99/31 109/101/31 99/105/31
f 99/105/31 101/89/31 102/86/31
f 102/86/31 103/121/31 104/83/31
f 104/83/31 105/82/31 106/120/31
f 106/120/31 107/80/31 100/79/31
f 100/79/31 44/78/31 110/91/31
f 110/91/31 112/93/31 114/96/31
f 114/96/31 116/99/31 99/105/31
f 99/105/31 102/86/31 104/83/31
f 104/83/31 106/120/31 100/79/31
f 100/79/31 110/91/31 114/96/31
f 114/96/31 99/105/31 104/83/31
f 118/104/28 120/108/28 119/106/28
f 120/108/49 124/110/49 123/109/49
f 124/110/31 122/78/31 121/79/31
f 121/79/50 122/78/50 118/95/50
f 123/109/51 121/79/51 117/74/51
f 120/64/52 118/77/52 122/78/52
usemtl Material.002
f 126/104/28 127/106/28 125/107/28
f 128/108/49 131/109/49 127/106/49
f 132/110/31 129/79/31 131/109/31
f 130/78/50 125/85/50 129/79/50
f 127/111/51 129/79/51 125/74/51
f 128/64/52 130/78/52 132/110/52
f 126/104/28 128/108/28 127/106/28
f 128/108/49 132/110/49 131/109/49
f 132/110/31 130/78/31 129/79/31
f 130/78/50 126/95/50 125/85/50
f 127/111/51 131/109/51 129/79/51
f 128/64/52 126/77/52 130/78/52
o Cube.001
v -0.851875 1.672564 0.839325
v -0.851875 1.750085 0.587534
v -0.588421 1.672564 0.839325
v -0.588421 1.750085 0.587534
v -0.851875 1.459053 0.637470
v -0.851875 1.545108 0.800085
v -0.851875 1.453974 0.662462
v -0.851875 1.453869 0.687965
v -0.851875 1.458740 0.712998
v -0.851875 1.468402 0.736600
v -0.851875 1.482483 0.757863
v -0.851875 1.500441 0.775971
v -0.851875 1.521587 0.790228
v -0.851875 1.622629 0.548294
v -0.851875 1.460014 0.634349
v -0.851875 1.597637 0.543215
v -0.851875 1.572134 0.543109
v -0.851875 1.547101 0.547981
v -0.851875 1.523499 0.557643
v -0.851875 1.502235 0.571723
v -0.851875 1.484127 0.589682
v -0.851875 1.469871 0.610828
v -0.588421 1.545108 0.800085
v -0.588421 1.459053 0.637470
v -0.588421 1.521587 0.790228
v -0.588421 1.500441 0.775971
v -0.588421 1.482483 0.757863
v -0.588421 1.468402 0.736600
v -0.588421 1.458740 0.712998
v -0.588421 1.453869 0.687965
v -0.588421 1.453974 0.662462
v -0.588421 1.460014 0.634349
v -0.588421 1.622629 0.548294
v -0.588421 1.469871 0.610828
v -0.588421 1.484127 0.589682
v -0.588421 1.502235 0.571723
v -0.588421 1.523499 0.557643
v -0.588421 1.547101 0.547981
v -0.588421 1.572134 0.543109
v -0.588421 1.597637 0.543215
v -0.851875 2.461972 1.097711
v -0.851875 2.623049 1.012470
v -0.851875 2.486727 1.102742
v -0.851875 2.511989 1.102847
v -0.851875 2.536785 1.098021
v -0.851875 2.560164 1.088451
v -0.851875 2.581227 1.074503
v -0.851875 2.599163 1.056715
v -0.851875 2.613285 1.035769
v -0.851875 2.624733 1.006997
v -0.851875 2.539492 0.845920
v -0.851875 2.629764 0.982242
v -0.851875 2.629869 0.956980
v -0.851875 2.625043 0.932184
v -0.851875 2.615473 0.908805
v -0.851875 2.601525 0.887743
v -0.851875 2.583737 0.869806
v -0.851875 2.562791 0.855684
v -0.588421 2.623049 1.012470
v -0.588421 2.461972 1.097711
v -0.588421 2.613285 1.035769
v -0.588421 2.599163 1.056715
v -0.588421 2.581226 1.074503
v -0.588421 2.560164 1.088451
v -0.588421 2.536785 1.098022
v -0.588421 2.511989 1.102847
v -0.588421 2.486727 1.102742
v -0.588421 2.539492 0.845920
v -0.588421 2.624733 1.006997
v -0.588421 2.562791 0.855684
v -0.588421 2.583737 0.869806
v -0.588421 2.601525 0.887743
v -0.588421 2.615473 0.908805
v -0.588421 2.625043 0.932184
v -0.588421 2.629869 0.956980
v -0.588421 2.629764 0.982242
v -0.701536 2.353292 1.149108
v -0.544647 1.746858 1.078262
v -0.544647 1.746858 0.885911
v -0.387446 1.746858 1.078262
v -0.701536 2.658235 1.149108
v -0.387446 1.746858 0.885911
v -0.701536 2.353292 0.815064
v -0.701536 2.658235 0.815064
v -0.230558 2.353292 1.149108
v -0.566682 1.696285 1.124416
v -0.230558 2.658235 1.149108
v -0.566682 1.696285 0.839756
v -0.230558 2.353292 0.815064
v -0.544647 1.701827 1.012341
v -0.478727 1.701827 1.078262
v -0.365412 1.696285 1.124416
v -0.230558 2.658235 0.815064
v -0.365412 1.696285 0.839756
v -0.578470 2.200464 1.149108
v -0.478727 1.701827 0.885911
v -0.578470 2.200464 0.815064
v -0.544647 1.701827 0.951831
v -0.353624 2.200464 1.149108
v -0.353624 2.200464 0.815064
v -0.453367 1.701827 1.078262
v -0.578470 1.694810 1.149108
v -0.387446 1.701827 1.012341
v -0.578470 1.694810 0.815064
v -0.387446 1.701827 0.951831
v -0.353624 1.694810 1.149108
v -0.453367 1.701827 0.885911
v -0.353624 1.694810 0.815064
v -0.478727 1.696285 1.078262
v -0.544647 1.696285 1.012341
v -0.566677 1.696285 1.124406
v -0.544647 1.696285 0.951831
v -0.478727 1.696285 0.885911
v -0.566677 1.696285 0.839766
v -0.387446 1.696285 1.012341
v -0.453367 1.696285 1.078262
v -0.365417 1.696285 1.124406
v -0.453367 1.696285 0.885911
v -0.387446 1.696285 0.951831
v -0.365417 1.696285 0.839766
v -0.365412 1.694810 1.124416
v -0.365412 1.694810 1.124416
v -0.365412 1.694810 0.839756
v -0.365412 1.694810 0.839756
v -0.566682 1.694810 0.839756
v -0.566682 1.694810 1.124416
v -0.387446 1.701827 1.011891
v -0.387446 1.702072 1.011871
v -0.478538 1.701827 1.078262
v -0.478533 1.701967 1.078262
v -0.453560 1.701967 0.885911
v -0.453556 1.701827 0.885911
v -0.544647 1.702072 0.952302
v -0.544647 1.701827 0.952282
v -0.537534 1.696285 1.078262
v -0.544647 1.696285 1.078262
v -0.537534 1.696285 0.885911
v -0.544647 1.696285 0.885911
v -0.387446 1.696285 1.078262
v -0.394560 1.696285 1.078262
v -0.394560 1.696285 0.885911
v -0.387446 1.696285 0.885911
v -0.544647 1.746858 1.057372
v -0.523757 1.746858 1.078262
v -0.523757 1.746858 0.885911
v -0.544647 1.746858 0.906801
v -0.408336 1.746858 1.078262
v -0.387446 1.746858 1.057372
v -0.387446 1.746858 0.906801
v -0.408336 1.746858 0.885911
v -0.544647 1.746858 1.012341
v -0.544647 1.701427 0.956197
v -0.544647 1.704948 0.950750
v -0.544647 1.703852 0.952446
v -0.544647 1.702060 0.955217
v -0.544647 1.701827 0.955579
v -0.544647 1.746858 0.951831
v -0.544647 1.704249 0.951831
v -0.453367 1.746858 1.078262
v -0.478727 1.746858 1.078262
v -0.478727 1.746858 0.885911
v -0.453367 1.746858 0.885911
v -0.387446 1.746858 1.012341
v -0.387446 1.701427 1.007975
v -0.387446 1.703851 1.011726
v -0.387446 1.704249 1.012341
v -0.387446 1.701827 1.008594
v -0.387446 1.702060 1.008955
v -0.387446 1.746858 0.951831
vn -0.0000 -0.3865 0.9223
vn -0.0000 -0.5590 0.8292
vn -0.0000 -0.7100 0.7042
vn -0.0000 -0.8338 0.5521
vn -0.0000 -0.9255 0.3789
vn -0.0000 -0.9816 0.1910
vn -0.0000 -1.0000 -0.0041
vn -0.0000 -0.9800 -0.1991
vn -0.0000 0.1992 -0.9800
vn -0.0000 0.0041 -1.0000
vn -0.0000 -0.1910 -0.9816
vn -0.0000 -0.3789 -0.9255
vn -0.0000 -0.5521 -0.8338
vn -0.0000 -0.7042 -0.7100
vn -0.0000 -0.8292 -0.5590
vn -0.0000 -0.9223 -0.3865
vn -0.0000 -0.2942 0.9557
vn -1.0000 -0.0000 -0.0000
vn -0.0000 -0.9557 -0.2942
vn -0.0000 0.2942 -0.9557
vn 1.0000 -0.0000 -0.0000
vn -0.0000 -0.1992 0.9800
vn -0.0000 -0.0041 1.0000
vn -0.0000 0.1910 0.9816
vn -0.0000 0.3789 0.9255
vn -0.0000 0.5521 0.8338
vn -0.0000 0.7042 0.7100
vn -0.0000 0.8292 0.5590
vn -0.0000 0.9223 0.3865
vn -0.0000 0.3865 -0.9223
vn -0.0000 0.5590 -0.8292
vn -0.0000 0.7100 -0.7042
vn -0.0000 0.8338 -0.5521
vn -0.0000 0.9255 -0.3789
vn -0.0000 0.9816 -0.1910
vn -0.0000 1.0000 0.0041
vn -0.0000 0.9800 0.1992
vn -0.0000 0.9557 0.2943
vn -0.0000 -0.3111 0.9504
vn -0.0000 0.3111 -0.9504
vn -0.0000 -0.0000 -1.0000
vn -0.0000 -0.0000 1.0000
vn -0.7789 -0.6272 -0.0000
vn -0.0000 1.0000 -0.0000
vn 0.7789 -0.6272 -0.0000
vn -0.0000 -1.0000 -0.0000
vn -0.0000 -1.0000 -0.0078
vn -0.0000 0.0008 -1.0000
vn -0.0000 -0.0002 -1.0000
vn -0.0000 0.0001 1.0000
vn -0.0000 0.0004 1.0000
vn -0.0000 -0.9800 -0.1992
vn -0.0000 -0.9557 -0.2943
vn 1.0000 -0.0001 -0.0000
vn -0.0000 0.9557 0.2942
vn 0.0002 -1.0000 -0.0000
vn 0.0092 -1.0000 -0.0000
vn 0.0296 -0.9996 -0.0037
vn -0.0000 -1.0000 0.0053
vn 0.0024 -1.0000 0.0071
vn -0.0251 -0.9997 -0.0037
vn 0.0045 -1.0000 -0.0000
vn -0.0000 -0.0003 -1.0000
vn -0.0001 -0.0000 -1.0000
vn -0.0003 -0.0000 1.0000
vn 0.0007 0.0004 1.0000
vt 0.125000 0.623451
vt 0.375791 0.599367
vt 0.375000 0.623451
vt 0.125000 0.599367
vt 0.378132 0.576208
vt 0.125000 0.576208
vt 0.381935 0.554865
vt 0.125000 0.554865
vt 0.387053 0.512053
vt 0.393079 0.231921
vt 0.429865 0.506935
vt 0.429865 0.243065
vt 0.451208 0.503132
vt 0.451208 0.246868
vt 0.474367 0.500791
vt 0.498451 0.250000
vt 0.498451 0.500000
vt 0.625000 0.623451
vt 0.875000 0.599367
vt 0.875000 0.623451
vt 0.624209 0.599367
vt 0.875000 0.576208
vt 0.621868 0.576208
vt 0.875000 0.554865
vt 0.618065 0.554865
vt 0.875000 0.500000
vt 0.612947 0.512053
vt 0.570135 0.243065
vt 0.606921 0.231921
vt 0.570135 0.506935
vt 0.548792 0.246868
vt 0.548792 0.503132
vt 0.525633 0.249209
vt 0.525633 0.500791
vt 0.501549 0.250000
vt 0.125000 0.750000
vt 0.375000 0.126549
vt 0.625000 0.750000
vt 0.375000 0.750000
vt 0.375783 0.750000
vt 0.378103 0.750000
vt 0.125000 0.750000
vt 0.381869 0.750000
vt 0.375000 1.000000
vt 0.429346 0.750000
vt 0.429346 1.000000
vt 0.450487 1.000000
vt 0.450487 0.750000
vt 0.473427 1.000000
vt 0.473427 0.750000
vt 0.497283 1.000000
vt 0.875000 0.750000
vt 0.624217 0.750000
vt 0.621897 0.750000
vt 0.618131 0.750000
vt 0.613061 0.750000
vt 0.625000 1.000000
vt 0.570654 0.750000
vt 0.570654 1.000000
vt 0.549513 0.750000
vt 0.526573 1.000000
vt 0.526573 0.750000
vt 0.502717 1.000000
vt 0.502717 0.750000
vt 0.429346 0.000000
vt 0.589184 0.000000
vt 0.625000 0.000000
vt 0.497283 0.750000
vt 0.386939 0.750000
vt 0.375000 0.000000
vt 0.625000 0.250000
vt 0.375000 0.250000
vt 0.625000 0.500000
vt 0.375000 0.500000
vt 0.375000 1.000000
vt 0.375000 0.010335
vt 0.375000 0.013976
vt 0.375000 0.050048
vt 0.375000 0.236024
vt 0.375000 0.199952
vt 0.375000 0.239665
vt 0.375000 0.736024
vt 0.375000 0.699952
vt 0.375000 0.739665
vt 0.375000 0.395165
vt 0.375000 0.478352
vt 0.375000 0.486024
vt 0.375000 0.854835
vt 0.375000 0.550048
vt 0.375000 0.966778
vt 0.375000 0.895165
vt 0.375000 0.988687
vt 0.375000 0.894865
vt 0.375000 0.895165
vt 0.375000 0.761313
vt 0.375000 0.894857
vt 0.375000 0.854835
vt 0.375000 0.783222
vt 0.375000 0.085420
vt 0.375000 0.027151
vt 0.375000 0.164654
vt 0.375000 0.222849
vt 0.375000 0.085678
vt 0.375000 0.163993
vt 0.375000 0.158885
vt 0.375000 0.159688
vt 0.375000 0.164580
vt 0.375000 0.163964
vt 0.375000 0.164553
vt 0.375000 0.165956
vt 0.375000 0.163755
vt 0.375000 0.160157
vt 0.375000 0.261313
vt 0.375000 0.354835
vt 0.375000 0.283222
vt 0.375000 0.354835
vt 0.375000 0.395165
vt 0.375000 0.394865
vt 0.375000 0.488687
vt 0.375000 0.394857
vt 0.375000 0.466778
vt 0.375000 0.395165
vt 0.375000 0.354835
vt 0.375000 0.664654
vt 0.375000 0.722849
vt 0.375000 0.585346
vt 0.375000 0.527151
vt 0.375000 0.663993
vt 0.375000 0.658885
vt 0.375000 0.585420
vt 0.375000 0.585678
vt 0.375000 0.664580
vt 0.375000 0.663964
vt 0.375000 0.663755
vt 0.375000 0.664553
vt 0.375000 0.660157
vt 0.375000 0.659688
vt 0.125000 0.500000
vt 0.474367 0.249209
vt 0.501549 0.500000
vt 0.625000 0.126549
vt 0.622628 0.150633
vt 0.615603 0.173792
vt 0.604195 0.195135
vt 0.395805 0.195135
vt 0.384397 0.173792
vt 0.377372 0.150633
vt 0.549513 1.000000
vt 0.377350 0.000000
vt 0.384308 0.000000
vt 0.395608 0.000000
vt 0.410816 0.000000
vt 0.450487 0.000000
vt 0.473427 0.000000
vt 0.497283 0.000000
vt 0.502717 0.000000
vt 0.526573 0.000000
vt 0.549513 0.000000
vt 0.570654 0.000000
vt 0.604392 0.000000
vt 0.615692 0.000000
vt 0.622650 0.000000
vt 0.375000 0.085346
vt 0.375000 0.164322
vt 0.375000 0.664322
s 0
usemtl 
f 138/138/53 157/139/53 155/140/53
f 145/141/54 158/142/54 157/139/54
f 144/143/55 159/144/55 158/142/55
f 143/145/56 160/146/56 159/144/56
f 142/147/57 161/148/57 160/146/57
f 141/149/58 162/150/58 161/148/58
f 140/151/59 163/152/59 162/150/59
f 163/152/60 137/153/60 156/154/60
f 165/155/61 148/156/61 146/157/61
f 172/158/62 149/159/62 148/156/62
f 171/160/63 150/161/63 149/159/63
f 170/162/64 151/163/64 150/161/64
f 169/164/65 152/165/65 151/166/65
f 168/167/66 153/168/66 152/165/66
f 167/169/67 154/170/67 153/168/67
f 166/171/68 147/172/68 154/170/68
f 155/140/69 133/173/69 138/138/69
f 152/165/70 142/147/70 138/174/70
f 147/172/71 156/154/71 137/153/71
f 146/157/72 136/175/72 165/155/72
f 163/152/73 171/160/73 135/176/73
f 173/173/74 199/177/74 175/173/74
f 175/173/75 198/178/75 176/179/75
f 198/178/76 177/173/76 176/179/76
f 197/180/77 178/173/77 177/173/77
f 178/181/78 195/182/78 179/183/78
f 195/182/79 180/184/79 179/183/79
f 194/185/80 181/186/80 180/184/80
f 193/187/81 174/188/81 181/186/81
f 200/175/82 190/189/82 202/190/82
f 190/189/83 203/191/83 202/190/83
f 189/189/84 204/192/84 203/191/84
f 188/189/85 205/193/85 204/192/85
f 187/194/86 206/195/86 205/193/86
f 186/196/87 207/197/87 206/195/87
f 207/197/88 184/198/88 208/199/88
f 208/199/89 182/200/89 201/201/89
f 179/202/70 187/203/70 183/204/70
f 191/205/90 182/200/90 174/188/90
f 135/176/91 173/173/91 133/173/91
f 134/189/92 200/175/92 136/175/92
f 206/195/73 196/206/73 192/176/73
f 209/207/70 216/208/70 215/209/70
f 215/209/93 225/210/93 221/211/93
f 225/210/73 217/176/73 221/211/73
f 219/175/94 209/181/94 217/176/94
f 215/209/95 227/207/95 209/207/95
f 225/210/96 213/189/96 219/175/96
f 231/176/73 240/211/73 232/211/73
f 221/211/97 231/176/97 232/211/97
f 217/176/94 227/181/94 231/176/94
f 215/209/93 232/211/93 229/209/93
f 256/211/98 240/211/98 254/176/98
f 229/209/70 234/207/70 227/207/70
f 227/181/94 238/176/94 231/176/94
f 232/211/93 236/209/93 229/209/93
f 234/207/98 257/209/98 258/207/98
f 234/181/98 253/176/98 238/176/98
f 240/211/98 257/209/98 236/209/98
f 253/176/99 218/212/99 254/176/99
f 256/211/94 226/211/94 257/209/94
f 226/211/70 254/176/70 224/176/70
f 220/209/73 258/207/73 257/209/73
f 241/207/98 243/207/98 267/213/98
f 268/214/98 243/207/98 242/215/98
f 246/209/98 270/216/98 244/217/98
f 246/209/98 245/209/98 269/218/98
f 249/176/98 271/219/98 247/220/98
f 249/176/98 248/176/98 272/221/98
f 250/222/98 252/211/98 273/223/98
f 274/224/98 252/211/98 251/211/98
f 224/176/98 243/212/98 248/225/98
f 220/209/98 244/217/98 243/207/98
f 226/211/98 250/222/98 246/209/98
f 226/211/98 249/176/98 251/226/98
f 276/227/93 241/228/93 267/229/93
f 261/230/100 248/225/100 223/231/100
f 272/232/93 233/225/93 212/176/93
f 261/230/101 223/231/101 262/233/101
f 276/227/93 292/228/93 223/231/93
f 233/225/93 262/233/93 292/228/93
f 233/225/93 291/234/93 279/235/93
f 268/207/73 222/236/73 275/237/73
f 244/238/73 211/209/73 278/239/73
f 275/237/73 222/236/73 283/240/73
f 244/238/73 266/241/73 284/242/73
f 284/242/73 266/241/73 288/243/73
f 266/241/73 230/244/73 265/245/73
f 278/239/73 290/246/73 285/247/73
f 286/248/73 222/236/73 287/249/73
f 266/241/73 287/249/73 288/243/73
f 230/244/73 285/247/73 290/246/73
f 230/244/73 286/248/73 265/245/73
f 269/250/94 228/251/94 277/252/94
f 245/253/102 239/254/102 264/255/102
f 214/211/94 239/254/94 273/256/94
f 263/257/103 264/255/103 239/254/103
f 239/254/94 282/258/94 294/259/94
f 263/257/94 294/259/94 293/260/94
f 277/252/94 228/251/94 293/260/94
f 247/261/70 212/176/70 280/262/70
f 251/263/70 281/264/70 214/211/70
f 247/261/70 259/265/70 296/266/70
f 237/267/70 301/268/70 281/264/70
f 235/269/70 260/270/70 259/265/70
f 235/269/70 297/271/70 260/270/70
f 280/262/70 298/272/70 235/269/70
f 297/271/70 237/267/70 300/273/70
f 259/265/70 300/273/70 299/274/70
f 259/265/70 299/274/70 296/266/70
f 138/138/53 145/141/53 157/139/53
f 145/141/54 144/143/54 158/142/54
f 144/143/55 143/145/55 159/144/55
f 143/145/56 142/275/56 160/146/56
f 142/147/57 141/149/57 161/148/57
f 141/149/58 140/151/58 162/150/58
f 140/151/59 139/276/59 163/152/59
f 163/152/104 139/276/104 137/153/104
f 165/155/61 172/158/61 148/156/61
f 172/158/62 171/160/62 149/159/62
f 171/160/63 170/162/63 150/161/63
f 170/162/64 169/164/64 151/163/64
f 169/164/65 168/167/65 152/165/65
f 168/167/66 167/169/66 153/168/66
f 167/169/67 166/171/67 154/170/67
f 166/171/68 164/277/68 147/172/68
f 155/140/69 135/176/69 133/173/69
f 138/174/70 133/207/70 134/204/70
f 134/204/70 146/278/70 148/279/70
f 148/279/70 149/280/70 150/281/70
f 150/281/70 151/166/70 152/165/70
f 152/165/70 153/168/70 154/170/70
f 154/170/70 147/172/70 137/153/70
f 137/153/70 139/276/70 140/151/70
f 140/151/70 141/149/70 142/147/70
f 142/147/70 143/282/70 144/283/70
f 144/283/70 145/284/70 138/174/70
f 138/174/70 134/204/70 148/279/70
f 148/279/70 150/281/70 152/165/70
f 152/165/70 154/170/70 137/153/70
f 137/153/70 140/151/70 142/147/70
f 142/147/70 144/283/70 138/174/70
f 138/174/70 148/279/70 152/165/70
f 152/165/70 137/153/70 142/147/70
f 147/172/105 164/277/105 156/154/105
f 146/157/72 134/189/72 136/175/72
f 135/176/73 155/140/73 157/139/73
f 157/139/73 158/142/73 159/144/73
f 159/144/73 160/146/73 161/148/73
f 161/148/73 162/150/73 163/152/73
f 163/152/106 156/154/106 164/277/106
f 164/277/73 166/171/73 167/169/73
f 167/169/73 168/167/73 169/164/73
f 169/164/73 170/162/73 171/160/73
f 171/160/73 172/158/73 165/155/73
f 165/155/73 136/175/73 135/176/73
f 135/176/73 157/139/73 159/144/73
f 159/144/73 161/148/73 163/152/73
f 163/152/73 164/277/73 167/169/73
f 167/169/73 169/164/73 171/160/73
f 171/160/73 165/155/73 135/176/73
f 135/176/73 159/144/73 163/152/73
f 163/152/73 167/169/73 171/160/73
f 173/173/74 192/176/74 199/177/74
f 175/173/75 199/177/75 198/178/75
f 198/178/76 197/180/76 177/173/76
f 197/180/77 196/206/77 178/173/77
f 178/181/78 196/206/78 195/182/78
f 195/182/79 194/185/79 180/184/79
f 194/185/80 193/187/80 181/186/80
f 193/187/81 191/205/81 174/188/81
f 200/175/82 183/189/82 190/189/82
f 190/189/83 189/189/83 203/191/83
f 189/189/84 188/189/84 204/192/84
f 188/189/85 187/189/85 205/193/85
f 187/194/86 186/196/86 206/195/86
f 186/196/87 185/285/87 207/197/87
f 207/197/88 185/285/88 184/198/88
f 208/199/89 184/198/89 182/200/89
f 183/204/70 134/204/70 133/207/70
f 133/207/70 173/207/70 175/286/70
f 175/286/70 176/287/70 177/288/70
f 177/288/70 178/289/70 179/202/70
f 179/202/70 180/290/70 181/291/70
f 181/291/70 174/292/70 182/293/70
f 182/293/70 184/294/70 185/295/70
f 185/295/70 186/296/70 187/203/70
f 187/203/70 188/297/70 189/298/70
f 189/298/70 190/299/70 183/204/70
f 183/204/70 133/207/70 175/286/70
f 175/286/70 177/288/70 179/202/70
f 179/202/70 181/291/70 182/293/70
f 182/293/70 185/295/70 187/203/70
f 187/203/70 189/298/70 183/204/70
f 183/204/70 175/286/70 179/202/70
f 179/202/70 182/293/70 187/203/70
f 191/205/107 201/201/107 182/200/107
f 135/176/91 192/176/91 173/173/91
f 134/189/92 183/189/92 200/175/92
f 192/176/73 135/176/73 136/175/73
f 136/175/73 200/175/73 202/190/73
f 202/190/73 203/191/73 204/192/73
f 204/192/73 205/193/73 206/195/73
f 206/195/73 207/197/73 208/199/73
f 208/199/106 201/201/106 191/205/106
f 191/205/73 193/187/73 194/185/73
f 194/185/73 195/182/73 196/206/73
f 196/206/73 197/180/73 198/178/73
f 198/178/73 199/177/73 192/176/73
f 192/176/73 136/175/73 202/190/73
f 202/190/73 204/192/73 206/195/73
f 206/195/73 208/199/73 191/205/73
f 191/205/73 194/185/73 196/206/73
f 196/206/73 198/178/73 192/176/73
f 192/176/73 202/190/73 206/195/73
f 206/195/73 191/205/73 196/206/73
f 209/207/70 213/204/70 216/208/70
f 215/209/93 216/208/93 225/210/93
f 225/210/73 219/175/73 217/176/73
f 219/175/94 213/194/94 209/181/94
f 215/209/95 229/209/95 227/207/95
f 225/210/96 216/163/96 213/189/96
f 231/176/73 238/176/73 240/211/73
f 221/211/97 217/176/97 231/176/97
f 217/176/94 209/181/94 227/181/94
f 215/209/93 221/211/93 232/211/93
f 238/176/98 253/176/98 254/176/98
f 240/211/98 238/176/98 254/176/98
f 254/176/96 255/211/96 256/211/96
f 229/209/70 236/209/70 234/207/70
f 227/181/94 234/181/94 238/176/94
f 232/211/93 240/211/93 236/209/93
f 234/207/98 236/209/98 257/209/98
f 234/181/98 258/181/98 253/176/98
f 240/211/98 256/211/98 257/209/98
f 253/176/93 258/181/93 218/212/93
f 218/212/93 224/176/93 254/176/93
f 226/211/94 220/209/94 257/209/94
f 256/211/96 255/211/96 226/211/96
f 226/211/70 255/211/70 254/176/70
f 220/209/73 218/207/73 258/207/73
f 268/214/98 267/213/98 243/207/98
f 246/209/98 269/218/98 270/216/98
f 249/176/98 272/221/98 271/219/98
f 274/224/98 273/223/98 252/211/98
f 248/225/108 249/176/108 224/176/108
f 224/176/98 218/212/98 243/212/98
f 243/212/98 241/228/98 248/225/98
f 243/207/109 218/207/109 220/209/109
f 220/209/110 246/209/110 244/217/110
f 244/217/98 242/215/98 243/207/98
f 246/209/111 220/209/111 226/211/111
f 226/211/112 252/211/112 250/222/112
f 250/222/98 245/253/98 246/209/98
f 251/226/113 252/211/113 226/211/113
f 226/211/114 224/176/114 249/176/114
f 249/176/98 247/220/98 251/226/98
f 268/181/93 210/181/93 276/227/93
f 276/227/93 223/231/93 241/228/93
f 267/229/93 268/181/93 276/227/93
f 261/230/93 233/225/93 248/225/93
f 248/225/93 241/228/93 223/231/93
f 272/232/93 248/225/93 233/225/93
f 233/225/93 279/235/93 212/176/93
f 212/176/93 271/176/93 272/232/93
f 292/228/93 291/234/93 233/225/93
f 233/225/115 261/230/115 262/233/115
f 262/233/116 223/231/116 292/228/116
f 275/237/73 210/207/73 268/207/73
f 268/207/73 242/300/73 222/236/73
f 278/239/73 230/244/73 244/238/73
f 244/238/73 270/209/73 211/209/73
f 284/242/73 288/243/73 222/236/73
f 222/236/73 242/300/73 244/238/73
f 244/238/73 230/244/73 266/241/73
f 284/242/73 222/236/73 244/238/73
f 285/247/73 230/244/73 278/239/73
f 278/239/73 289/301/73 290/246/73
f 286/248/73 290/246/73 289/301/73
f 289/301/73 283/240/73 222/236/73
f 222/236/73 288/243/73 287/249/73
f 287/249/73 265/245/73 286/248/73
f 286/248/73 289/301/73 222/236/73
f 266/241/73 265/245/73 287/249/73
f 230/244/73 290/246/73 286/248/73
f 277/252/94 211/209/94 270/209/94
f 269/250/94 245/253/94 228/251/94
f 277/252/94 270/209/94 269/250/94
f 264/255/94 228/251/94 245/253/94
f 245/253/94 250/222/94 239/254/94
f 273/256/94 274/211/94 214/211/94
f 214/211/94 282/258/94 239/254/94
f 239/254/94 250/222/94 273/256/94
f 293/260/94 228/251/94 264/255/94
f 263/257/117 239/254/117 294/259/117
f 293/260/118 264/255/118 263/257/118
f 280/262/70 235/269/70 247/261/70
f 247/261/70 271/176/70 212/176/70
f 214/211/70 274/211/70 251/263/70
f 251/263/70 237/267/70 281/264/70
f 296/266/70 299/274/70 237/267/70
f 237/267/70 251/263/70 247/261/70
f 247/261/70 235/269/70 259/265/70
f 296/266/70 237/267/70 247/261/70
f 235/269/70 298/272/70 297/271/70
f 280/262/70 295/302/70 298/272/70
f 297/271/70 298/272/70 295/302/70
f 295/302/70 301/268/70 237/267/70
f 237/267/70 299/274/70 300/273/70
f 300/273/70 260/270/70 297/271/70
f 297/271/70 295/302/70 237/267/70
f 259/265/70 260/270/70 300/273/70
o модуль
v -0.544647 1.695044 1.078261
v -0.544647 1.695044 0.885910
v -0.387446 1.695044 1.078261
v -0.387446 1.695044 0.885910
v -0.566682 0.760352 1.124416
v -0.566682 0.760352 0.839755
v -0.365412 0.760352 1.124416
v -0.365412 0.760352 0.839755
v -0.566682 0.269792 1.124416
v -0.566682 0.269792 0.839755
v -0.365412 0.269792 1.124416
v -0.365412 0.269792 0.839755
v -0.544647 1.504795 1.012341
v -0.478727 1.504795 1.078261
v -0.544647 1.570716 1.078261
v -0.525340 1.504795 1.058954
v -0.478727 1.504795 0.885910
v -0.544647 1.504795 0.951831
v -0.544647 1.570716 0.885910
v -0.525340 1.504795 0.905218
v -0.453367 1.504795 1.078261
v -0.387446 1.504795 1.012341
v -0.387446 1.570716 1.078261
v -0.406754 1.504795 1.058954
v -0.387446 1.504795 0.951831
v -0.453367 1.504795 0.885910
v -0.387446 1.570716 0.885910
v -0.406754 1.504795 0.905218
v -0.478727 0.760352 1.078261
v -0.544647 0.760352 1.012341
v -0.566677 0.760352 1.124406
v -0.525340 0.760352 1.058954
v -0.544647 0.760352 0.951831
v -0.478727 0.760352 0.885910
v -0.566677 0.760352 0.839766
v -0.525340 0.760352 0.905218
v -0.387446 0.760352 1.012341
v -0.453367 0.760352 1.078261
v -0.365417 0.760352 1.124406
v -0.406754 0.760352 1.058954
v -0.453367 0.760352 0.885910
v -0.387446 0.760352 0.951831
v -0.365417 0.760352 0.839766
v -0.406754 0.760352 0.905218
vn -0.0000 -0.0000 1.0000
vn -0.0000 -1.0000 -0.0000
vn -0.0000 -0.0000 -1.0000
vn 1.0000 -0.0000 -0.0000
vn -1.0000 -0.0000 -0.0000
vn -0.8629 -0.3574 0.3574
vn -0.3574 -0.3574 0.8629
vn -0.3574 -0.3574 -0.8629
vn -0.8629 -0.3574 -0.3574
vn 0.3574 -0.3574 0.8629
vn 0.8629 -0.3574 0.3574
vn 0.8629 -0.3574 -0.3574
vn 0.3574 -0.3574 -0.8629
vn -0.0000 1.0000 -0.0000
vn 0.3827 -0.0000 0.9239
vn 0.9239 -0.0000 0.3827
vn 0.3827 -0.0000 -0.9239
vn 0.9239 -0.0000 -0.3827
vn -0.3827 -0.0000 -0.9239
vn -0.9239 -0.0000 -0.3827
vn -0.3827 -0.0000 0.9239
vn -0.9239 -0.0000 0.3827
vn -0.0197 0.9998 -0.0000
vt 0.375000 1.000000
vt 0.375000 0.750000
vt 0.375000 0.500000
vt 0.125000 0.750000
vt 0.125000 0.500000
vt 0.375000 0.250000
vt 0.375000 0.000000
vt 0.375000 0.050048
vt 0.375000 0.014659
vt 0.375000 0.354835
vt 0.375000 0.280705
vt 0.375000 0.854835
vt 0.375000 0.780705
vt 0.375000 0.550048
vt 0.375000 0.514659
vt 0.375000 0.014659
vt 0.375000 0.050048
vt 0.375000 0.199952
vt 0.375000 0.235341
vt 0.375000 0.699952
vt 0.375000 0.735341
vt 0.375000 0.395165
vt 0.375000 0.469295
vt 0.375000 0.854835
vt 0.375000 0.354835
vt 0.375000 0.199952
vt 0.375000 0.895165
vt 0.375000 0.050048
s 0
usemtl 
f 306/303/119 312/304/119 308/304/119
f 313/305/120 310/306/120 311/307/120
f 309/305/121 311/308/121 307/308/121
f 308/304/122 313/305/122 309/305/122
f 307/308/123 310/309/123 306/309/123
f 314/310/124 317/311/124 316/309/124
f 317/311/125 315/309/125 316/309/125
f 318/312/126 321/313/126 320/308/126
f 321/313/127 319/308/127 320/308/127
f 322/314/128 325/315/128 324/304/128
f 325/315/129 323/304/129 324/304/129
f 326/316/130 329/317/130 328/305/130
f 329/317/131 327/305/131 328/305/131
f 330/309/132 333/318/132 332/309/132
f 333/318/132 331/319/132 332/309/132
f 334/320/132 337/321/132 336/308/132
f 337/321/132 335/308/132 336/308/132
f 338/322/132 341/323/132 340/304/132
f 341/323/132 339/304/132 340/304/132
f 342/324/132 345/325/132 344/305/132
f 345/325/132 343/305/132 344/305/132
f 339/326/133 325/304/133 322/314/133
f 341/304/134 323/322/134 325/304/134
f 327/324/135 345/305/135 342/324/135
f 329/305/136 343/316/136 345/305/136
f 335/327/137 321/308/137 318/312/137
f 337/308/138 319/328/138 321/308/138
f 315/329/139 333/303/139 330/329/139
f 317/309/140 331/330/140 333/309/140
f 319/328/123 331/330/123 314/310/123
f 302/303/119 315/329/119 324/304/119
f 303/308/123 319/328/123 316/309/123
f 315/329/119 339/326/119 322/314/119
f 327/324/121 335/327/121 318/312/121
f 305/305/121 327/324/121 320/308/121
f 304/304/122 323/322/122 328/305/122
f 323/322/122 343/316/122 326/316/122
f 339/326/132 332/303/132 308/304/132
f 331/330/132 336/308/132 306/309/132
f 335/327/132 344/305/132 307/308/132
f 343/316/132 340/304/132 309/305/132
f 306/303/119 310/303/119 312/304/119
f 313/305/120 312/304/120 310/306/120
f 309/305/121 313/305/121 311/308/121
f 308/304/122 312/304/122 313/305/122
f 307/308/123 311/308/123 310/309/123
f 339/326/133 341/304/133 325/304/133
f 341/304/134 338/322/134 323/322/134
f 327/324/135 329/305/135 345/305/135
f 329/305/136 326/316/136 343/316/136
f 335/327/137 337/308/137 321/308/137
f 337/308/138 334/320/138 319/328/138
f 315/329/139 317/303/139 333/303/139
f 317/309/140 314/310/140 331/330/140
f 319/328/123 334/320/123 331/330/123
f 324/304/119 304/304/119 302/303/119
f 302/303/119 316/303/119 315/329/119
f 315/329/119 322/314/119 324/304/119
f 316/309/123 302/309/123 303/308/123
f 303/308/123 320/308/123 319/328/123
f 319/328/123 314/310/123 316/309/123
f 315/329/119 330/329/119 339/326/119
f 327/324/121 342/324/121 335/327/121
f 320/308/121 303/308/121 305/305/121
f 305/305/121 328/305/121 327/324/121
f 327/324/121 318/312/121 320/308/121
f 328/305/122 305/305/122 304/304/122
f 304/304/122 324/304/122 323/322/122
f 323/322/122 326/316/122 328/305/122
f 323/322/122 338/322/122 343/316/122
f 308/304/132 340/304/132 339/326/132
f 339/326/132 330/329/132 332/303/132
f 332/303/132 306/303/132 308/304/132
f 306/309/132 332/309/132 331/330/132
f 331/330/132 334/320/132 336/308/132
f 336/308/132 307/308/132 306/309/132
f 307/308/132 336/308/132 335/327/132
f 335/327/132 342/324/132 344/305/132
f 344/305/132 309/305/132 307/308/132
f 309/305/141 344/305/141 343/316/141
f 343/316/132 338/322/132 340/304/132
f 340/304/132 308/304/132 309/305/132
