# Blender 5.0.1
# www.blender.org
mtllib lab3_model.mtl
o Ходовая_балка
v 1.639341 -0.013782 0.159063
v 1.552949 -0.013782 0.072671
v 1.552949 1.797317 0.072671
v 1.639341 1.797317 0.159063
v 1.552949 -0.013782 -0.072671
v 1.639341 -0.013782 -0.159063
v 1.639341 1.797317 -0.159063
v 1.552949 1.797317 -0.072671
v 1.871075 -0.013782 0.072671
v 1.784683 -0.013782 0.159063
v 1.784683 1.797317 0.159063
v 1.871075 1.797317 0.072671
v 1.784683 -0.013782 -0.159063
v 1.871075 -0.013782 -0.072671
v 1.871075 1.797317 -0.072671
v 1.784683 1.797317 -0.159063
v -1.623602 -0.013782 0.159063
v -1.709994 -0.013782 0.072671
v -1.709994 1.797317 0.072671
v -1.623602 1.797317 0.159063
v -1.709994 -0.013782 -0.072671
v -1.623602 -0.013782 -0.159063
v -1.623602 1.797317 -0.159063
v -1.709994 1.797317 -0.072671
v -1.391868 -0.013782 0.072671
v -1.478260 -0.013782 0.159063
v -1.478260 1.797317 0.159063
v -1.391868 1.797317 0.072671
v -1.478260 -0.013782 -0.159063
v -1.391868 -0.013782 -0.072671
v -1.391868 1.797317 -0.072671
v -1.478260 1.797317 -0.159063
v -1.721284 1.699662 0.261883
v -1.721284 2.223427 0.261883
v -1.721284 1.699662 -0.261882
v -1.721284 2.223427 -0.261882
v 1.885748 1.699662 0.261883
v 1.885748 2.223427 0.261883
v 1.885748 1.699662 -0.261882
v 1.885748 2.223427 -0.261882
vn -0.7071 -0.0000 0.7071
vn -0.7071 -0.0000 -0.7071
vn 0.7071 -0.0000 -0.7071
vn 0.7071 -0.0000 0.7071
vn -0.0000 -1.0000 -0.0000
vn -1.0000 -0.0000 -0.0000
vn -0.0000 -0.0000 1.0000
vn -0.0000 1.0000 -0.0000
vn -0.0000 -0.0000 -1.0000
vn 1.0000 -0.0000 -0.0000
vt 0.625000 0.000000
vt 0.375000 0.067891
vt 0.375000 0.000000
vt 0.375000 0.317891
vt 0.625000 0.182109
vt 0.625000 0.317891
vt 0.375000 0.567891
vt 0.647630 0.454739
vt 0.625000 0.567891
vt 0.352370 0.795261
vt 0.625000 0.682109
vt 0.647630 0.795261
vt 0.125000 0.682109
vt 0.625000 0.067891
vt 0.375000 0.182109
vt 0.375000 0.932109
vt 0.875000 0.567891
vt 0.807109 0.750000
vt 0.352370 0.454739
vt 0.375000 0.682109
vt 0.375000 0.250000
vt 0.625000 0.250000
vt 0.375000 0.500000
vt 0.625000 0.500000
vt 0.375000 0.750000
vt 0.625000 0.750000
vt 0.375000 1.000000
vt 0.125000 0.750000
vt 0.125000 0.500000
vt 0.875000 0.500000
vt 0.125000 0.567891
vt 0.192891 0.500000
vt 0.192891 0.750000
vt 0.625000 0.932109
vt 0.807109 0.500000
vt 0.875000 0.682109
vt 0.625000 1.000000
vt 0.875000 0.750000
s 1
usemtl Material.001
f 4/1/1 2/2/1 1/3/1
f 6/4/2 8/5/2 7/6/2
f 14/7/3 16/8/3 15/9/3
f 10/10/4 12/11/4 11/12/4
f 14/7/5 10/10/5 2/13/5
f 3/14/6 5/15/6 2/2/6
f 11/12/7 1/16/7 10/10/7
f 8/17/8 4/18/8 12/11/8
f 7/6/9 13/19/9 6/4/9
f 15/9/10 9/20/10 14/7/10
f 20/1/1 18/2/1 17/3/1
f 22/4/2 24/5/2 23/6/2
f 30/7/3 32/8/3 31/9/3
f 26/10/4 28/11/4 27/12/4
f 30/7/5 26/10/5 18/13/5
f 19/14/6 21/15/6 18/2/6
f 27/12/7 17/16/7 26/10/7
f 24/17/8 20/18/8 28/11/8
f 23/6/9 29/19/9 22/4/9
f 31/9/10 25/20/10 30/7/10
f 34/1/6 35/21/6 33/3/6
f 36/22/9 39/23/9 35/21/9
f 40/24/10 37/25/10 39/23/10
f 38/26/7 33/27/7 37/25/7
f 39/23/5 33/28/5 35/29/5
f 36/30/8 38/26/8 40/24/8
f 4/1/1 3/14/1 2/2/1
f 6/4/2 5/15/2 8/5/2
f 14/7/3 13/19/3 16/8/3
f 10/10/4 9/20/4 12/11/4
f 2/13/5 5/31/5 6/32/5
f 6/32/5 13/19/5 14/7/5
f 14/7/5 9/20/5 10/10/5
f 10/10/5 1/33/5 2/13/5
f 2/13/5 6/32/5 14/7/5
f 3/14/6 8/5/6 5/15/6
f 11/12/7 4/34/7 1/16/7
f 12/11/8 15/9/8 16/8/8
f 16/8/8 7/35/8 8/17/8
f 8/17/8 3/36/8 4/18/8
f 4/18/8 11/12/8 12/11/8
f 12/11/8 16/8/8 8/17/8
f 7/6/9 16/8/9 13/19/9
f 15/9/10 12/11/10 9/20/10
f 20/1/1 19/14/1 18/2/1
f 22/4/2 21/15/2 24/5/2
f 30/7/3 29/19/3 32/8/3
f 26/10/4 25/20/4 28/11/4
f 18/13/5 21/31/5 22/32/5
f 22/32/5 29/19/5 30/7/5
f 30/7/5 25/20/5 26/10/5
f 26/10/5 17/33/5 18/13/5
f 18/13/5 22/32/5 30/7/5
f 19/14/6 24/5/6 21/15/6
f 27/12/7 20/34/7 17/16/7
f 28/11/8 31/9/8 32/8/8
f 32/8/8 23/35/8 24/17/8
f 24/17/8 19/36/8 20/18/8
f 20/18/8 27/12/8 28/11/8
f 28/11/8 32/8/8 24/17/8
f 23/6/9 32/8/9 29/19/9
f 31/9/10 28/11/10 25/20/10
f 34/1/6 36/22/6 35/21/6
f 36/22/9 40/24/9 39/23/9
f 40/24/10 38/26/10 37/25/10
f 38/26/7 34/37/7 33/27/7
f 39/23/5 37/25/5 33/28/5
f 36/30/8 34/38/8 38/26/8
o Cube
v -1.050187 1.484818 0.318699
v -1.050187 2.401762 0.318699
v -1.050187 1.484818 -0.305657
v -1.050187 2.401762 -0.305657
v 0.131686 1.484818 0.318699
v 0.131686 2.401762 0.318699
v 0.131686 1.484818 -0.305657
v 0.131686 2.401762 -0.305657
vn -1.0000 -0.0000 -0.0000
vn -0.0000 -0.0000 -1.0000
vn 1.0000 -0.0000 -0.0000
vn -0.0000 -0.0000 1.0000
vn -0.0000 -1.0000 -0.0000
vn -0.0000 1.0000 -0.0000
vt 0.625000 0.000000
vt 0.375000 0.250000
vt 0.375000 0.000000
vt 0.625000 0.250000
vt 0.375000 0.500000
vt 0.625000 0.500000
vt 0.375000 0.750000
vt 0.625000 0.750000
vt 0.375000 1.000000
vt 0.125000 0.750000
vt 0.125000 0.500000
vt 0.875000 0.500000
vt 0.625000 1.000000
vt 0.875000 0.750000
s 1
usemtl Material.002
f 42/39/11 43/40/11 41/41/11
f 44/42/12 47/43/12 43/40/12
f 48/44/13 45/45/13 47/43/13
f 46/46/14 41/47/14 45/45/14
f 47/43/15 41/48/15 43/49/15
f 44/50/16 46/46/16 48/44/16
f 42/39/11 44/42/11 43/40/11
f 44/42/12 48/44/12 47/43/12
f 48/44/13 46/46/13 45/45/13
f 46/46/14 42/51/14 41/47/14
f 47/43/15 45/45/15 41/48/15
f 44/50/16 42/52/16 46/46/16
o Cube.001
v -0.810139 1.618464 0.579760
v -0.810139 2.186455 0.579760
v -0.810139 1.618464 0.308681
v -0.810139 2.186455 0.308681
v -0.588418 1.618464 0.579760
v -0.588418 2.186455 0.579760
v -0.588418 1.618464 0.308681
v -0.588418 2.186455 0.308681
vn -1.0000 -0.0000 -0.0000
vn -0.0000 -0.0000 -1.0000
vn 1.0000 -0.0000 -0.0000
vn -0.0000 -0.0000 1.0000
vn -0.0000 -1.0000 -0.0000
vn -0.0000 1.0000 -0.0000
vt 0.625000 0.000000
vt 0.375000 0.250000
vt 0.375000 0.000000
vt 0.625000 0.250000
vt 0.375000 0.500000
vt 0.625000 0.500000
vt 0.375000 0.750000
vt 0.625000 0.750000
vt 0.375000 1.000000
vt 0.125000 0.750000
vt 0.125000 0.500000
vt 0.875000 0.500000
vt 0.625000 1.000000
vt 0.875000 0.750000
s 0
f 50/53/17 51/54/17 49/55/17
f 52/56/18 55/57/18 51/54/18
f 56/58/19 53/59/19 55/57/19
f 54/60/20 49/61/20 53/59/20
f 55/57/21 49/62/21 51/63/21
f 52/64/22 54/60/22 56/58/22
f 50/53/17 52/56/17 51/54/17
f 52/56/18 56/58/18 55/57/18
f 56/58/19 54/60/19 53/59/19
f 54/60/20 50/65/20 49/61/20
f 55/57/21 53/59/21 49/62/21
f 52/64/22 50/66/22 54/60/22
o Cube.002
v -0.588331 1.733116 0.412172
v -0.588332 1.878906 0.631611
v -0.324877 1.733116 0.412172
v -0.324877 1.878906 0.631611
v -0.588332 2.024547 0.374742
v -0.588331 1.844196 0.338374
v -0.588332 2.008420 0.354986
v -0.588332 1.988749 0.338755
v -0.588332 1.966289 0.326673
v -0.588331 1.941903 0.319206
v -0.588331 1.916530 0.316639
v -0.588331 1.891143 0.319072
v -0.588331 1.866719 0.326411
v -0.588332 1.989985 0.557813
v -0.588332 2.026354 0.377462
v -0.588332 2.009742 0.541686
v -0.588332 2.025973 0.522015
v -0.588332 2.038054 0.499555
v -0.588332 2.045521 0.475170
v -0.588332 2.048088 0.449796
v -0.588332 2.045655 0.424410
v -0.588332 2.038316 0.399985
v -0.324877 1.844196 0.338374
v -0.324877 2.024547 0.374742
v -0.324877 1.866719 0.326411
v -0.324877 1.891143 0.319072
v -0.324877 1.916530 0.316639
v -0.324877 1.941903 0.319206
v -0.324877 1.966289 0.326674
v -0.324877 1.988749 0.338755
v -0.324877 2.008420 0.354986
v -0.324877 2.026354 0.377462
v -0.324877 1.989985 0.557813
v -0.324877 2.038316 0.399985
v -0.324877 2.045655 0.424410
v -0.324877 2.048088 0.449796
v -0.324877 2.045521 0.475170
v -0.324877 2.038054 0.499555
v -0.324877 2.025973 0.522015
v -0.324877 2.009742 0.541686
v -0.588331 1.501607 0.565981
v -0.588331 1.465583 0.744626
v -0.588331 1.482037 0.581955
v -0.588331 1.465960 0.601440
v -0.588331 1.453993 0.623688
v -0.588331 1.446596 0.647842
v -0.588331 1.444054 0.672976
v -0.588331 1.446464 0.698123
v -0.588331 1.453733 0.722316
v -0.588331 1.468751 0.749395
v -0.588332 1.647397 0.785420
v -0.588331 1.484726 0.768965
v -0.588331 1.504211 0.785043
v -0.588331 1.526459 0.797009
v -0.588331 1.550613 0.804406
v -0.588331 1.575747 0.806949
v -0.588331 1.600893 0.804539
v -0.588331 1.625086 0.797269
v -0.324877 1.465583 0.744626
v -0.324877 1.501607 0.565981
v -0.324877 1.453733 0.722316
v -0.324877 1.446464 0.698123
v -0.324877 1.444054 0.672976
v -0.324877 1.446596 0.647842
v -0.324877 1.453993 0.623688
v -0.324877 1.465960 0.601440
v -0.324877 1.482037 0.581955
v -0.324877 1.647397 0.785420
v -0.324877 1.468751 0.749395
v -0.324877 1.625086 0.797269
v -0.324877 1.600893 0.804539
v -0.324877 1.575747 0.806949
v -0.324877 1.550613 0.804406
v -0.324877 1.526459 0.797009
v -0.324877 1.504211 0.785043
v -0.324877 1.484726 0.768965
v -0.851875 1.672564 0.839325
v -0.851875 1.750085 0.587534
v -0.588421 1.672564 0.839325
v -0.588421 1.750085 0.587534
v -0.851875 1.459053 0.637470
v -0.851875 1.545108 0.800085
v -0.851875 1.453974 0.662462
v -0.851875 1.453868 0.687965
v -0.851875 1.458740 0.712998
v -0.851875 1.468402 0.736600
v -0.851875 1.482483 0.757863
v -0.851875 1.500441 0.775971
v -0.851875 1.521587 0.790228
v -0.851875 1.622629 0.548294
v -0.851875 1.460014 0.634349
v -0.851875 1.597637 0.543215
v -0.851875 1.572134 0.543109
v -0.851875 1.547101 0.547981
v -0.851875 1.523499 0.557643
v -0.851875 1.502235 0.571723
v -0.851875 1.484127 0.589682
v -0.851875 1.469871 0.610828
v -0.588421 1.545108 0.800085
v -0.588421 1.459053 0.637470
v -0.588421 1.521587 0.790228
v -0.588421 1.500441 0.775971
v -0.588421 1.482483 0.757863
v -0.588421 1.468402 0.736600
v -0.588421 1.458740 0.712998
v -0.588421 1.453868 0.687965
v -0.588421 1.453974 0.662462
v -0.588421 1.460014 0.634349
v -0.588421 1.622629 0.548294
v -0.588421 1.469871 0.610828
v -0.588421 1.484127 0.589682
v -0.588421 1.502235 0.571723
v -0.588421 1.523499 0.557643
v -0.588421 1.547101 0.547981
v -0.588421 1.572134 0.543109
v -0.588421 1.597637 0.543215
v -0.851875 2.461972 1.097711
v -0.851875 2.623048 1.012470
v -0.851875 2.486727 1.102742
v -0.851875 2.511989 1.102847
v -0.851875 2.536785 1.098021
v -0.851875 2.560164 1.088451
v -0.851875 2.581226 1.074503
v -0.851875 2.599163 1.056715
v -0.851875 2.613285 1.035769
v -0.851875 2.624733 1.006997
v -0.851875 2.539492 0.845920
v -0.851875 2.629764 0.982242
v -0.851875 2.629869 0.956980
v -0.851875 2.625043 0.932184
v -0.851875 2.615473 0.908805
v -0.851875 2.601525 0.887742
v -0.851875 2.583737 0.869806
v -0.851875 2.562791 0.855684
v -0.588421 2.623049 1.012470
v -0.588421 2.461971 1.097711
v -0.588421 2.613285 1.035769
v -0.588421 2.599163 1.056715
v -0.588421 2.581226 1.074503
v -0.588421 2.560164 1.088451
v -0.588421 2.536785 1.098021
v -0.588421 2.511989 1.102847
v -0.588421 2.486727 1.102742
v -0.588421 2.539492 0.845920
v -0.588421 2.624733 1.006997
v -0.588421 2.562790 0.855684
v -0.588421 2.583736 0.869806
v -0.588421 2.601525 0.887743
v -0.588421 2.615473 0.908805
v -0.588421 2.625043 0.932184
v -0.588421 2.629869 0.956980
v -0.588421 2.629764 0.982242
vn -0.0000 -0.5118 -0.8591
vn -0.0000 -0.3802 -0.9249
vn -0.0000 -0.1925 -0.9813
vn -0.0000 0.0026 -1.0000
vn -0.0000 0.1977 -0.9803
vn -0.0000 0.3851 -0.9229
vn -0.0000 0.5578 -0.8300
vn -0.0000 0.7090 -0.7052
vn -0.0000 0.8048 -0.5936
vn -0.0000 0.5936 0.8048
vn -0.0000 0.7052 0.7090
vn -0.0000 0.8300 0.5578
vn -0.0000 0.9229 0.3851
vn -0.0000 0.9803 0.1977
vn -0.0000 1.0000 0.0026
vn -0.0000 0.9813 -0.1925
vn -0.0000 0.9249 -0.3802
vn -0.0000 0.8591 -0.5118
vn -0.0000 -0.5534 -0.8329
vn -1.0000 -0.0000 -0.0000
vn -0.0000 0.5534 0.8329
vn 1.0000 -0.0000 -0.0000
vn -0.0000 -0.5936 -0.8048
vn -0.0000 -0.7052 -0.7090
vn -0.0000 -0.8300 -0.5578
vn -0.0000 -0.9229 -0.3851
vn -0.0000 -0.9803 -0.1977
vn -0.0000 -1.0000 -0.0026
vn -0.0000 -0.9813 0.1925
vn -0.0000 -0.9249 0.3802
vn -0.0000 -0.8591 0.5118
vn -0.0000 0.5118 0.8591
vn -0.0000 0.3802 0.9249
vn -0.0000 0.1925 0.9813
vn -0.0000 -0.0026 1.0000
vn -0.0000 -0.1977 0.9803
vn -0.0000 -0.3851 0.9229
vn -0.0000 -0.5578 0.8300
vn -0.0000 -0.7090 0.7052
vn -0.0000 -0.8048 0.5936
vn -0.0000 -0.3408 0.9401
vn -0.0000 -0.4750 0.8800
vn -0.0000 -0.6376 0.7704
vn -0.0000 -0.7756 0.6312
vn -0.0000 -0.8839 0.4677
vn -0.0000 -0.9581 0.2863
vn -0.0000 -0.9956 0.0939
vn -0.0000 -0.9948 -0.1021
vn -0.0000 -0.9690 -0.2470
vn -0.0000 0.2470 -0.9690
vn -0.0000 0.1021 -0.9948
vn -0.0000 -0.0939 -0.9956
vn -0.0000 -0.2863 -0.9581
vn -0.0000 -0.4677 -0.8839
vn -0.0000 -0.6312 -0.7756
vn -0.0000 -0.7704 -0.6376
vn -0.0000 -0.8800 -0.4750
vn -0.0000 -0.9401 -0.3408
vn -0.0000 -0.3027 0.9531
vn -0.0000 0.3027 -0.9531
vn -0.0000 -0.2555 0.9668
vn -0.0000 -0.1021 0.9948
vn -0.0000 0.0939 0.9956
vn -0.0000 0.2863 0.9581
vn -0.0000 0.4677 0.8839
vn -0.0000 0.6312 0.7756
vn -0.0000 0.7704 0.6376
vn -0.0000 0.8800 0.4750
vn -0.0000 0.9401 0.3408
vn -0.0000 0.3491 -0.9371
vn -0.0000 0.4750 -0.8800
vn -0.0000 0.6376 -0.7704
vn -0.0000 0.7756 -0.6312
vn -0.0000 0.8839 -0.4677
vn -0.0000 0.9581 -0.2863
vn -0.0000 0.9956 -0.0939
vn -0.0000 0.9948 0.1021
vn -0.0000 0.9690 0.2470
vn -1.0000 -0.0001 -0.0000
vn 1.0000 -0.0001 -0.0000
vt 0.125000 0.623451
vt 0.375791 0.599367
vt 0.375000 0.623451
vt 0.125000 0.599367
vt 0.378132 0.576208
vt 0.125000 0.576208
vt 0.381935 0.554865
vt 0.125000 0.554865
vt 0.387053 0.512053
vt 0.393079 0.231921
vt 0.429865 0.506935
vt 0.429865 0.243065
vt 0.451208 0.503132
vt 0.451208 0.246868
vt 0.474367 0.500791
vt 0.474367 0.249209
vt 0.498451 0.500000
vt 0.625000 0.623451
vt 0.875000 0.599367
vt 0.875000 0.623451
vt 0.624209 0.599367
vt 0.875000 0.576208
vt 0.621868 0.576208
vt 0.875000 0.554865
vt 0.618065 0.554865
vt 0.875000 0.500000
vt 0.612947 0.512053
vt 0.570135 0.243065
vt 0.606921 0.231921
vt 0.570135 0.506935
vt 0.548792 0.246868
vt 0.548792 0.503132
vt 0.525633 0.249209
vt 0.525633 0.500791
vt 0.501549 0.250000
vt 0.125000 0.750000
vt 0.375000 0.126549
vt 0.498451 0.250000
vt 0.625000 0.750000
vt 0.375000 0.750000
vt 0.375783 0.750000
vt 0.125000 0.750000
vt 0.378103 0.750000
vt 0.381869 0.750000
vt 0.386939 0.750000
vt 0.429346 1.000000
vt 0.375000 1.000000
vt 0.429346 0.750000
vt 0.450487 1.000000
vt 0.450487 0.750000
vt 0.473427 1.000000
vt 0.473427 0.750000
vt 0.497283 1.000000
vt 0.875000 0.750000
vt 0.624217 0.750000
vt 0.621897 0.750000
vt 0.618131 0.750000
vt 0.613061 0.750000
vt 0.625000 1.000000
vt 0.570654 0.750000
vt 0.570654 1.000000
vt 0.549513 0.750000
vt 0.549513 1.000000
vt 0.526573 0.750000
vt 0.526573 1.000000
vt 0.502717 0.750000
vt 0.429346 0.000000
vt 0.589184 0.000000
vt 0.625000 0.000000
vt 0.497283 0.750000
vt 0.125000 0.500000
vt 0.501549 0.500000
vt 0.375000 0.000000
vt 0.625000 0.126549
vt 0.622628 0.150633
vt 0.615603 0.173792
vt 0.604195 0.195135
vt 0.395805 0.195135
vt 0.384397 0.173792
vt 0.377372 0.150633
vt 0.502717 1.000000
vt 0.377350 0.000000
vt 0.384308 0.000000
vt 0.395608 0.000000
vt 0.410816 0.000000
vt 0.450487 0.000000
vt 0.473427 0.000000
vt 0.497283 0.000000
vt 0.502717 0.000000
vt 0.526573 0.000000
vt 0.549513 0.000000
vt 0.570654 0.000000
vt 0.604392 0.000000
vt 0.615692 0.000000
vt 0.622650 0.000000
s 1
f 62/67/23 81/68/24 79/69/23
f 69/70/24 82/71/25 81/68/24
f 68/72/25 83/73/26 82/71/25
f 67/74/26 84/75/27 83/73/26
f 66/76/27 85/77/28 84/75/27
f 65/78/28 86/79/29 85/77/28
f 64/80/29 87/81/30 86/79/29
f 63/82/30 80/83/31 87/81/30
f 89/84/32 72/85/33 70/86/32
f 96/87/33 73/88/34 72/85/33
f 95/89/34 74/90/35 73/88/34
f 94/91/35 75/92/36 74/90/35
f 93/93/36 76/94/37 75/95/36
f 92/96/37 77/97/38 76/94/37
f 91/98/38 78/99/39 77/97/38
f 90/100/39 71/101/40 78/99/39
f 79/69/23 57/102/41 62/67/23
f 76/94/42 66/76/42 62/103/42
f 71/101/40 80/83/31 61/104/31
f 70/86/32 60/105/43 89/84/32
f 87/81/44 95/89/44 59/106/44
f 116/106/45 99/102/46 97/102/45
f 123/107/46 100/108/47 99/102/46
f 122/109/47 101/102/48 100/108/47
f 121/110/48 102/102/49 101/102/48
f 120/111/49 103/112/50 102/113/49
f 119/114/50 104/115/51 103/112/50
f 118/116/51 105/117/52 104/115/51
f 117/118/52 98/119/53 105/117/52
f 107/120/54 126/121/55 124/105/54
f 114/120/55 127/122/56 126/121/55
f 113/120/56 128/123/57 127/122/56
f 112/120/57 129/124/58 128/123/57
f 111/125/58 130/126/59 129/124/58
f 110/127/59 131/128/60 130/126/59
f 109/129/60 132/130/61 131/128/60
f 108/131/61 125/132/62 132/130/61
f 103/133/42 111/134/42 107/135/42
f 125/132/62 98/119/53 115/136/53
f 59/106/41 97/102/45 57/102/41
f 58/120/43 124/105/54 60/105/43
f 130/126/44 120/111/44 116/106/44
f 155/69/63 145/70/64 157/68/64
f 145/70/64 158/71/65 157/68/64
f 144/72/65 159/73/66 158/71/65
f 143/74/66 160/75/67 159/73/66
f 142/76/67 161/77/68 160/75/67
f 141/78/68 162/79/69 161/77/68
f 140/80/69 163/81/70 162/79/69
f 139/82/70 156/83/71 163/81/70
f 165/84/72 148/85/73 146/86/72
f 172/87/73 149/88/74 148/85/73
f 171/89/74 150/90/75 149/88/74
f 170/91/75 151/92/76 150/90/75
f 169/93/76 152/94/77 151/95/76
f 168/96/77 153/97/78 152/94/77
f 167/98/78 154/99/79 153/97/78
f 166/100/79 147/101/80 154/99/79
f 155/69/63 133/102/81 138/67/63
f 152/94/42 142/76/42 138/103/42
f 147/101/80 156/83/71 137/104/71
f 146/86/72 136/105/82 165/84/72
f 163/81/44 171/89/44 135/106/44
f 192/106/83 175/102/84 173/102/83
f 175/102/84 198/109/85 176/108/85
f 198/109/85 177/102/86 176/108/85
f 197/110/86 178/102/87 177/102/86
f 196/111/87 179/112/88 178/113/87
f 195/114/88 180/115/89 179/112/88
f 194/116/89 181/117/90 180/115/89
f 193/118/90 174/119/91 181/117/90
f 200/105/92 190/120/93 202/121/93
f 190/120/93 203/122/94 202/121/93
f 189/120/94 204/123/95 203/122/94
f 188/120/95 205/124/96 204/123/95
f 187/125/96 206/126/97 205/124/96
f 186/127/97 207/128/98 206/126/97
f 207/128/98 184/131/99 208/130/99
f 184/131/99 201/132/100 208/130/99
f 179/133/42 187/134/42 183/135/42
f 201/132/100 174/119/91 191/136/91
f 133/102/81 192/106/83 173/102/83
f 134/120/82 200/105/92 136/105/82
f 206/126/44 196/111/44 192/106/44
f 62/67/23 69/70/24 81/68/24
f 69/70/24 68/72/25 82/71/25
f 68/72/25 67/74/26 83/73/26
f 67/74/26 66/137/27 84/75/27
f 66/76/27 65/78/28 85/77/28
f 65/78/28 64/80/29 86/79/29
f 64/80/29 63/82/30 87/81/30
f 63/82/30 61/104/31 80/83/31
f 89/84/32 96/87/33 72/85/33
f 96/87/33 95/89/34 73/88/34
f 95/89/34 94/91/35 74/90/35
f 94/91/35 93/93/36 75/92/36
f 93/93/36 92/96/37 76/94/37
f 92/96/37 91/98/38 77/97/38
f 91/98/38 90/100/39 78/99/39
f 90/100/39 88/138/40 71/101/40
f 79/69/23 59/106/41 57/102/41
f 62/103/42 57/139/42 58/135/42
f 58/135/42 70/140/42 72/141/42
f 72/141/42 73/142/42 74/143/42
f 74/143/42 75/95/42 76/94/42
f 76/94/42 77/97/42 78/99/42
f 78/99/42 71/101/42 61/104/42
f 61/104/42 63/82/42 64/80/42
f 64/80/42 65/78/42 66/76/42
f 66/76/42 67/144/42 68/145/42
f 68/145/42 69/146/42 62/103/42
f 62/103/42 58/135/42 72/141/42
f 72/141/42 74/143/42 76/94/42
f 76/94/42 78/99/42 61/104/42
f 61/104/42 64/80/42 66/76/42
f 66/76/42 68/145/42 62/103/42
f 62/103/42 72/141/42 76/94/42
f 76/94/42 61/104/42 66/76/42
f 71/101/40 88/138/40 80/83/31
f 70/86/32 58/120/43 60/105/43
f 59/106/44 79/69/44 81/68/44
f 81/68/44 82/71/44 83/73/44
f 83/73/44 84/75/44 85/77/44
f 85/77/44 86/79/44 87/81/44
f 87/81/44 80/83/44 88/138/44
f 88/138/44 90/100/44 91/98/44
f 91/98/44 92/96/44 93/93/44
f 93/93/44 94/91/44 95/89/44
f 95/89/44 96/87/44 89/84/44
f 89/84/44 60/105/44 59/106/44
f 59/106/44 81/68/44 83/73/44
f 83/73/44 85/77/44 87/81/44
f 87/81/44 88/138/44 91/98/44
f 91/98/44 93/93/44 95/89/44
f 95/89/44 89/84/44 59/106/44
f 59/106/44 83/73/44 87/81/44
f 87/81/44 91/98/44 95/89/44
f 116/106/45 123/107/46 99/102/46
f 123/107/46 122/109/47 100/108/47
f 122/109/47 121/110/48 101/102/48
f 121/110/48 120/111/49 102/102/49
f 120/111/49 119/114/50 103/112/50
f 119/114/50 118/116/51 104/115/51
f 118/116/51 117/118/52 105/117/52
f 117/118/52 115/136/53 98/119/53
f 107/120/54 114/120/55 126/121/55
f 114/120/55 113/120/56 127/122/56
f 113/120/56 112/120/57 128/123/57
f 112/120/57 111/120/58 129/124/58
f 111/125/58 110/127/59 130/126/59
f 110/127/59 109/129/60 131/128/60
f 109/129/60 108/131/61 132/130/61
f 108/131/61 106/147/62 125/132/62
f 107/135/42 58/135/42 57/139/42
f 57/139/42 97/139/42 99/148/42
f 99/148/42 100/149/42 101/150/42
f 101/150/42 102/151/42 103/133/42
f 103/133/42 104/152/42 105/153/42
f 105/153/42 98/154/42 106/155/42
f 106/155/42 108/156/42 109/157/42
f 109/157/42 110/158/42 111/134/42
f 111/134/42 112/159/42 113/160/42
f 113/160/42 114/161/42 107/135/42
f 107/135/42 57/139/42 99/148/42
f 99/148/42 101/150/42 103/133/42
f 103/133/42 105/153/42 106/155/42
f 106/155/42 109/157/42 111/134/42
f 111/134/42 113/160/42 107/135/42
f 107/135/42 99/148/42 103/133/42
f 103/133/42 106/155/42 111/134/42
f 125/132/62 106/147/62 98/119/53
f 59/106/41 116/106/45 97/102/45
f 58/120/43 107/120/54 124/105/54
f 116/106/44 59/106/44 60/105/44
f 60/105/44 124/105/44 126/121/44
f 126/121/44 127/122/44 128/123/44
f 128/123/44 129/124/44 130/126/44
f 130/126/44 131/128/44 132/130/44
f 132/130/44 125/132/44 115/136/44
f 115/136/44 117/118/44 118/116/44
f 118/116/44 119/114/44 120/111/44
f 120/111/44 121/110/44 122/109/44
f 122/109/44 123/107/44 116/106/44
f 116/106/44 60/105/44 126/121/44
f 126/121/44 128/123/44 130/126/44
f 130/126/44 132/130/44 115/136/44
f 115/136/44 118/116/44 120/111/44
f 120/111/44 122/109/44 116/106/44
f 116/106/44 126/121/44 130/126/44
f 130/126/44 115/136/44 120/111/44
f 155/69/63 138/67/63 145/70/64
f 145/70/64 144/72/65 158/71/65
f 144/72/65 143/74/66 159/73/66
f 143/74/66 142/137/67 160/75/67
f 142/76/67 141/78/68 161/77/68
f 141/78/68 140/80/69 162/79/69
f 140/80/69 139/82/70 163/81/70
f 139/82/70 137/104/71 156/83/71
f 165/84/72 172/87/73 148/85/73
f 172/87/73 171/89/74 149/88/74
f 171/89/74 170/91/75 150/90/75
f 170/91/75 169/93/76 151/92/76
f 169/93/76 168/96/77 152/94/77
f 168/96/77 167/98/78 153/97/78
f 167/98/78 166/100/79 154/99/79
f 166/100/79 164/138/80 147/101/80
f 155/69/63 135/106/81 133/102/81
f 138/103/42 133/139/42 134/135/42
f 134/135/42 146/140/42 148/141/42
f 148/141/42 149/142/42 150/143/42
f 150/143/42 151/95/42 152/94/42
f 152/94/42 153/97/42 154/99/42
f 154/99/42 147/101/101 137/104/42
f 137/104/42 139/82/42 140/80/42
f 140/80/42 141/78/42 142/76/42
f 142/76/42 143/144/42 144/145/42
f 144/145/42 145/146/42 138/103/42
f 138/103/42 134/135/42 148/141/42
f 148/141/42 150/143/42 152/94/42
f 152/94/42 154/99/42 137/104/42
f 137/104/42 140/80/42 142/76/42
f 142/76/42 144/145/42 138/103/42
f 138/103/42 148/141/42 152/94/42
f 152/94/42 137/104/42 142/76/42
f 147/101/80 164/138/80 156/83/71
f 146/86/72 134/120/82 136/105/82
f 135/106/44 155/69/44 157/68/44
f 157/68/44 158/71/44 159/73/44
f 159/73/44 160/75/44 161/77/44
f 161/77/44 162/79/44 163/81/44
f 163/81/44 156/83/102 164/138/44
f 164/138/44 166/100/44 167/98/44
f 167/98/44 168/96/44 169/93/44
f 169/93/44 170/91/44 171/89/44
f 171/89/44 172/87/44 165/84/44
f 165/84/44 136/105/44 135/106/44
f 135/106/44 157/68/44 159/73/44
f 159/73/44 161/77/44 163/81/44
f 163/81/44 164/138/44 167/98/44
f 167/98/44 169/93/44 171/89/44
f 171/89/44 165/84/44 135/106/44
f 135/106/44 159/73/44 163/81/44
f 163/81/44 167/98/44 171/89/44
f 192/106/83 199/107/84 175/102/84
f 175/102/84 199/107/84 198/109/85
f 198/109/85 197/110/86 177/102/86
f 197/110/86 196/111/87 178/102/87
f 196/111/87 195/114/88 179/112/88
f 195/114/88 194/116/89 180/115/89
f 194/116/89 193/118/90 181/117/90
f 193/118/90 191/136/91 174/119/91
f 200/105/92 183/120/92 190/120/93
f 190/120/93 189/120/94 203/122/94
f 189/120/94 188/120/95 204/123/95
f 188/120/95 187/120/96 205/124/96
f 187/125/96 186/127/97 206/126/97
f 186/127/97 185/129/98 207/128/98
f 207/128/98 185/129/98 184/131/99
f 184/131/99 182/147/100 201/132/100
f 183/135/42 134/135/42 133/139/42
f 133/139/42 173/139/42 175/148/42
f 175/148/42 176/149/42 177/150/42
f 177/150/42 178/151/42 179/133/42
f 179/133/42 180/152/42 181/153/42
f 181/153/42 174/154/42 182/155/42
f 182/155/42 184/156/42 185/157/42
f 185/157/42 186/158/42 187/134/42
f 187/134/42 188/159/42 189/160/42
f 189/160/42 190/161/42 183/135/42
f 183/135/42 133/139/42 175/148/42
f 175/148/42 177/150/42 179/133/42
f 179/133/42 181/153/42 182/155/42
f 182/155/42 185/157/42 187/134/42
f 187/134/42 189/160/42 183/135/42
f 183/135/42 175/148/42 179/133/42
f 179/133/42 182/155/42 187/134/42
f 201/132/100 182/147/100 174/119/91
f 133/102/81 135/106/81 192/106/83
f 134/120/82 183/120/92 200/105/92
f 192/106/44 135/106/44 136/105/44
f 136/105/44 200/105/44 202/121/44
f 202/121/44 203/122/44 204/123/44
f 204/123/44 205/124/44 206/126/44
f 206/126/44 207/128/44 208/130/44
f 208/130/44 201/132/102 191/136/44
f 191/136/44 193/118/44 194/116/44
f 194/116/44 195/114/44 196/111/44
f 196/111/44 197/110/44 198/109/44
f 198/109/44 199/107/44 192/106/44
f 192/106/44 136/105/44 202/121/44
f 202/121/44 204/123/44 206/126/44
f 206/126/44 208/130/44 191/136/44
f 191/136/44 194/116/44 196/111/44
f 196/111/44 198/109/44 192/106/44
f 192/106/44 202/121/44 206/126/44
f 206/126/44 191/136/44 196/111/44
o Cube.003
v -0.701536 2.353292 1.149108
v -0.701536 2.658235 1.149108
v -0.701536 2.353292 0.815064
v -0.701536 2.658235 0.815064
v -0.230558 2.353292 1.149108
v -0.230558 2.658235 1.149108
v -0.230558 2.353292 0.815064
v -0.230558 2.658235 0.815064
v -0.578470 2.200464 1.149108
v -0.578470 2.200464 0.815064
v -0.353624 2.200464 1.149108
v -0.353624 2.200464 0.815064
v -0.578470 1.694810 1.149108
v -0.578470 1.694810 0.815064
v -0.353624 1.694810 1.149108
v -0.353624 1.694810 0.815064
v -0.544647 1.694810 1.078261
v -0.544647 1.694810 0.885910
v -0.387446 1.694810 1.078261
v -0.387446 1.694810 0.885910
v -0.566682 0.760118 1.124416
v -0.566682 0.760118 0.839755
v -0.365412 0.760118 1.124416
v -0.365412 0.760118 0.839755
v -0.566682 0.269558 1.124416
v -0.566682 0.269558 0.839755
v -0.365412 0.269558 1.124416
v -0.365412 0.269558 0.839755
v -0.544647 1.504561 1.012341
v -0.478727 1.504561 1.078261
v -0.544647 1.570482 1.078261
v -0.525340 1.504561 1.058954
v -0.478727 1.504561 0.885910
v -0.544647 1.504561 0.951831
v -0.544647 1.570482 0.885910
v -0.525340 1.504561 0.905218
v -0.453367 1.504561 1.078261
v -0.387446 1.504561 1.012341
v -0.387446 1.570482 1.078261
v -0.406754 1.504561 1.058954
v -0.387446 1.504561 0.951831
v -0.453367 1.504561 0.885910
v -0.387446 1.570482 0.885910
v -0.406754 1.504561 0.905218
v -0.478727 0.760118 1.078261
v -0.544647 0.760118 1.012341
v -0.566677 0.760118 1.124406
v -0.525340 0.760118 1.058954
v -0.544647 0.760118 0.951831
v -0.478727 0.760118 0.885910
v -0.566677 0.760118 0.839766
v -0.525340 0.760118 0.905218
v -0.387446 0.760118 1.012341
v -0.453367 0.760118 1.078261
v -0.365417 0.760118 1.124406
v -0.406754 0.760118 1.058954
v -0.453367 0.760118 0.885910
v -0.387446 0.760118 0.951831
v -0.365417 0.760118 0.839766
v -0.406754 0.760118 0.905218
vn -1.0000 -0.0000 -0.0000
vn -0.0000 -0.0000 -1.0000
vn 1.0000 -0.0000 -0.0000
vn -0.0000 -0.0000 1.0000
vn -0.7789 -0.6272 -0.0000
vn -0.0000 1.0000 -0.0000
vn 0.7789 -0.6272 -0.0000
vn -0.0000 -1.0000 -0.0000
vn -0.8629 -0.3574 0.3574
vn -0.3574 -0.3574 0.8629
vn -0.3574 -0.3574 -0.8629
vn -0.8629 -0.3574 -0.3574
vn 0.3574 -0.3574 0.8629
vn 0.8629 -0.3574 0.3574
vn 0.8629 -0.3574 -0.3574
vn 0.3574 -0.3574 -0.8629
vn 0.3827 -0.0000 0.9239
vn 0.9239 -0.0000 0.3827
vn 0.3827 -0.0000 -0.9239
vn 0.9239 -0.0000 -0.3827
vn -0.3827 -0.0000 -0.9239
vn -0.9239 -0.0000 -0.3827
vn -0.3827 -0.0000 0.9239
vn -0.9239 -0.0000 0.3827
vn -0.0189 0.9998 -0.0000
vn 0.0188 0.9998 -0.0000
vt 0.625000 0.000000
vt 0.375000 0.250000
vt 0.375000 0.000000
vt 0.625000 0.250000
vt 0.375000 0.500000
vt 0.625000 0.500000
vt 0.375000 0.750000
vt 0.625000 0.750000
vt 0.375000 1.000000
vt 0.875000 0.500000
vt 0.125000 0.750000
vt 0.125000 0.500000
vt 0.375000 0.050048
vt 0.375000 0.014659
vt 0.375000 0.354835
vt 0.375000 0.280705
vt 0.375000 0.854835
vt 0.375000 0.780705
vt 0.375000 0.550048
vt 0.375000 0.514659
vt 0.375000 0.014659
vt 0.375000 0.050048
vt 0.375000 0.199952
vt 0.375000 0.235341
vt 0.375000 0.699952
vt 0.375000 0.735341
vt 0.375000 0.395165
vt 0.375000 0.469295
vt 0.375000 0.854835
vt 0.375000 0.354835
vt 0.375000 0.199952
vt 0.375000 0.895165
vt 0.375000 0.050048
vt 0.625000 1.000000
vt 0.875000 0.750000
s 0
f 210/162/103 211/163/103 209/164/103
f 212/165/104 215/166/104 211/163/104
f 216/167/105 213/168/105 215/166/105
f 214/169/106 209/170/106 213/168/106
f 211/163/107 217/164/107 209/164/107
f 212/171/108 214/169/108 216/167/108
f 219/168/105 224/166/105 220/166/105
f 213/168/109 220/166/109 215/166/109
f 209/170/106 219/168/106 213/168/106
f 215/166/104 218/163/104 211/163/104
f 223/168/110 228/166/110 224/166/110
f 218/163/103 221/164/103 217/164/103
f 217/170/106 223/168/106 219/168/106
f 220/166/104 222/163/104 218/163/104
f 221/164/110 226/163/110 225/164/110
f 221/170/110 227/168/110 223/168/110
f 222/163/110 228/166/110 226/163/110
f 229/170/106 235/168/106 231/168/106
f 236/166/110 233/172/110 234/173/110
f 232/166/104 234/163/104 230/163/104
f 231/168/105 236/166/105 232/166/105
f 230/163/103 233/164/103 229/164/103
f 237/174/111 240/175/111 239/164/111
f 240/175/112 238/164/112 239/164/112
f 241/176/113 244/177/113 243/163/113
f 244/177/114 242/163/114 243/163/114
f 245/178/115 248/179/115 247/168/115
f 248/179/116 246/168/116 247/168/116
f 249/180/117 252/181/117 251/166/117
f 252/181/118 250/166/118 251/166/118
f 253/164/108 256/182/108 255/164/108
f 256/182/108 254/183/108 255/164/108
f 257/184/108 260/185/108 259/163/108
f 260/185/108 258/163/108 259/163/108
f 261/186/108 264/187/108 263/168/108
f 264/187/108 262/168/108 263/168/108
f 265/188/108 268/189/108 267/166/108
f 268/189/108 266/166/108 267/166/108
f 262/190/119 248/168/119 245/178/119
f 264/168/120 246/186/120 248/168/120
f 250/188/121 268/166/121 265/188/121
f 252/166/122 266/180/122 268/166/122
f 258/191/123 244/163/123 241/176/123
f 260/163/124 242/192/124 244/163/124
f 238/193/125 256/170/125 253/193/125
f 240/164/126 254/194/126 256/164/126
f 242/192/103 254/194/103 237/174/103
f 225/170/106 238/193/106 247/168/106
f 226/163/103 242/192/103 239/164/103
f 238/193/106 262/190/106 245/178/106
f 250/188/104 258/191/104 241/176/104
f 228/166/104 250/188/104 243/163/104
f 227/168/105 246/186/105 251/166/105
f 246/186/105 266/180/105 249/180/105
f 262/190/108 255/170/108 231/168/108
f 254/194/108 259/163/108 229/164/108
f 258/191/108 267/166/108 230/163/108
f 266/180/108 263/168/108 232/166/108
f 210/162/103 212/165/103 211/163/103
f 212/165/104 216/167/104 215/166/104
f 216/167/105 214/169/105 213/168/105
f 214/169/106 210/195/106 209/170/106
f 211/163/107 218/163/107 217/164/107
f 212/171/108 210/196/108 214/169/108
f 219/168/105 223/168/105 224/166/105
f 213/168/109 219/168/109 220/166/109
f 209/170/106 217/170/106 219/168/106
f 215/166/104 220/166/104 218/163/104
f 223/168/110 227/168/110 228/166/110
f 218/163/103 222/163/103 221/164/103
f 217/170/106 221/170/106 223/168/106
f 220/166/104 224/166/104 222/163/104
f 221/164/110 222/163/110 226/163/110
f 221/170/110 225/170/110 227/168/110
f 222/163/110 224/166/110 228/166/110
f 229/170/106 233/170/106 235/168/106
f 236/166/110 235/168/110 233/172/110
f 232/166/104 236/166/104 234/163/104
f 231/168/105 235/168/105 236/166/105
f 230/163/103 234/163/103 233/164/103
f 262/190/119 264/168/119 248/168/119
f 264/168/120 261/186/120 246/186/120
f 250/188/121 252/166/121 268/166/121
f 252/166/122 249/180/122 266/180/122
f 258/191/123 260/163/123 244/163/123
f 260/163/124 257/184/124 242/192/124
f 238/193/125 240/170/125 256/170/125
f 240/164/126 237/174/126 254/194/126
f 242/192/103 257/184/103 254/194/103
f 247/168/106 227/168/106 225/170/106
f 225/170/106 239/170/106 238/193/106
f 238/193/106 245/178/106 247/168/106
f 239/164/103 225/164/103 226/163/103
f 226/163/103 243/163/103 242/192/103
f 242/192/103 237/174/103 239/164/103
f 238/193/106 253/193/106 262/190/106
f 250/188/104 265/188/104 258/191/104
f 243/163/104 226/163/104 228/166/104
f 228/166/104 251/166/104 250/188/104
f 250/188/104 241/176/104 243/163/104
f 251/166/105 228/166/105 227/168/105
f 227/168/105 247/168/105 246/186/105
f 246/186/105 249/180/105 251/166/105
f 246/186/105 261/186/105 266/180/105
f 231/168/127 263/168/127 262/190/127
f 262/190/108 253/193/108 255/170/108
f 255/170/108 229/170/108 231/168/108
f 229/164/108 255/164/108 254/194/108
f 254/194/108 257/184/108 259/163/108
f 259/163/108 230/163/108 229/164/108
f 230/163/128 259/163/128 258/191/128
f 258/191/108 265/188/108 267/166/108
f 267/166/108 232/166/108 230/163/108
f 232/166/108 267/166/108 266/180/108
f 266/180/108 261/186/108 263/168/108
f 263/168/108 231/168/108 232/166/108
